%TF.GenerationSoftware,KiCad,Pcbnew,(6.0.7)*%
%TF.CreationDate,2023-01-31T21:17:35+00:00*%
%TF.ProjectId,dmf-5008-backpack,646d662d-3530-4303-982d-6261636b7061,rev?*%
%TF.SameCoordinates,Original*%
%TF.FileFunction,Paste,Bot*%
%TF.FilePolarity,Positive*%
%FSLAX46Y46*%
G04 Gerber Fmt 4.6, Leading zero omitted, Abs format (unit mm)*
G04 Created by KiCad (PCBNEW (6.0.7)) date 2023-01-31 21:17:35*
%MOMM*%
%LPD*%
G01*
G04 APERTURE LIST*
G04 Aperture macros list*
%AMRoundRect*
0 Rectangle with rounded corners*
0 $1 Rounding radius*
0 $2 $3 $4 $5 $6 $7 $8 $9 X,Y pos of 4 corners*
0 Add a 4 corners polygon primitive as box body*
4,1,4,$2,$3,$4,$5,$6,$7,$8,$9,$2,$3,0*
0 Add four circle primitives for the rounded corners*
1,1,$1+$1,$2,$3*
1,1,$1+$1,$4,$5*
1,1,$1+$1,$6,$7*
1,1,$1+$1,$8,$9*
0 Add four rect primitives between the rounded corners*
20,1,$1+$1,$2,$3,$4,$5,0*
20,1,$1+$1,$4,$5,$6,$7,0*
20,1,$1+$1,$6,$7,$8,$9,0*
20,1,$1+$1,$8,$9,$2,$3,0*%
G04 Aperture macros list end*
%ADD10RoundRect,0.150000X-0.587500X-0.150000X0.587500X-0.150000X0.587500X0.150000X-0.587500X0.150000X0*%
%ADD11RoundRect,0.200000X0.275000X-0.200000X0.275000X0.200000X-0.275000X0.200000X-0.275000X-0.200000X0*%
%ADD12RoundRect,0.150000X-0.150000X0.587500X-0.150000X-0.587500X0.150000X-0.587500X0.150000X0.587500X0*%
%ADD13RoundRect,0.200000X0.200000X0.275000X-0.200000X0.275000X-0.200000X-0.275000X0.200000X-0.275000X0*%
%ADD14RoundRect,0.200000X-0.200000X-0.275000X0.200000X-0.275000X0.200000X0.275000X-0.200000X0.275000X0*%
%ADD15RoundRect,0.250000X-0.250000X-0.475000X0.250000X-0.475000X0.250000X0.475000X-0.250000X0.475000X0*%
%ADD16RoundRect,0.250000X-0.400000X-0.625000X0.400000X-0.625000X0.400000X0.625000X-0.400000X0.625000X0*%
%ADD17RoundRect,0.250000X-0.475000X0.250000X-0.475000X-0.250000X0.475000X-0.250000X0.475000X0.250000X0*%
%ADD18RoundRect,0.250000X-0.475000X0.337500X-0.475000X-0.337500X0.475000X-0.337500X0.475000X0.337500X0*%
%ADD19R,5.100000X2.350000*%
%ADD20RoundRect,0.150000X0.150000X-0.587500X0.150000X0.587500X-0.150000X0.587500X-0.150000X-0.587500X0*%
%ADD21RoundRect,0.100000X-0.712500X-0.100000X0.712500X-0.100000X0.712500X0.100000X-0.712500X0.100000X0*%
G04 APERTURE END LIST*
D10*
X154562500Y-93450000D03*
X154562500Y-91550000D03*
X156437500Y-92500000D03*
D11*
X152450000Y-101325000D03*
X152450000Y-99675000D03*
D12*
X154850000Y-121662500D03*
X156750000Y-121662500D03*
X155800000Y-123537500D03*
D11*
X152450000Y-69325000D03*
X152450000Y-67675000D03*
X158500000Y-69325000D03*
X158500000Y-67675000D03*
X158500000Y-113325000D03*
X158500000Y-111675000D03*
D13*
X156975000Y-126800000D03*
X155325000Y-126800000D03*
D11*
X152450000Y-77325000D03*
X152450000Y-75675000D03*
X158500000Y-105325000D03*
X158500000Y-103675000D03*
X158500000Y-101325000D03*
X158500000Y-99675000D03*
X152450000Y-109325000D03*
X152450000Y-107675000D03*
D10*
X154562500Y-81450000D03*
X154562500Y-79550000D03*
X156437500Y-80500000D03*
D11*
X158500000Y-81325000D03*
X158500000Y-79675000D03*
D14*
X159000000Y-128600000D03*
X160650000Y-128600000D03*
D11*
X136800000Y-116200000D03*
X136800000Y-114550000D03*
D15*
X164500000Y-128400000D03*
X166400000Y-128400000D03*
D10*
X154562500Y-65450000D03*
X154562500Y-63550000D03*
X156437500Y-64500000D03*
D14*
X155325000Y-128600000D03*
X156975000Y-128600000D03*
D11*
X152450000Y-89325000D03*
X152450000Y-87675000D03*
D10*
X154562500Y-89450000D03*
X154562500Y-87550000D03*
X156437500Y-88500000D03*
D11*
X152450000Y-93325000D03*
X152450000Y-91675000D03*
D10*
X154562500Y-73450000D03*
X154562500Y-71550000D03*
X156437500Y-72500000D03*
D16*
X175000000Y-120200000D03*
X178100000Y-120200000D03*
X175000000Y-123000000D03*
X178100000Y-123000000D03*
D11*
X158500000Y-65250000D03*
X158500000Y-63600000D03*
X152450000Y-81325000D03*
X152450000Y-79675000D03*
X158500000Y-73325000D03*
X158500000Y-71675000D03*
D10*
X154562500Y-77450000D03*
X154562500Y-75550000D03*
X156437500Y-76500000D03*
X154562500Y-69450000D03*
X154562500Y-67550000D03*
X156437500Y-68500000D03*
D17*
X178500000Y-110100000D03*
X178500000Y-112000000D03*
D10*
X154562500Y-101450000D03*
X154562500Y-99550000D03*
X156437500Y-100500000D03*
D11*
X158500000Y-109325000D03*
X158500000Y-107675000D03*
X152450000Y-65300000D03*
X152450000Y-63650000D03*
D18*
X161800000Y-118562500D03*
X161800000Y-120637500D03*
D11*
X158500000Y-93325000D03*
X158500000Y-91675000D03*
D13*
X160650000Y-126800000D03*
X159000000Y-126800000D03*
D10*
X154562500Y-113450000D03*
X154562500Y-111550000D03*
X156437500Y-112500000D03*
D11*
X152450000Y-105325000D03*
X152450000Y-103675000D03*
X152450000Y-85325000D03*
X152450000Y-83675000D03*
X158500000Y-85325000D03*
X158500000Y-83675000D03*
D10*
X154562500Y-85450000D03*
X154562500Y-83550000D03*
X156437500Y-84500000D03*
X154562500Y-109450000D03*
X154562500Y-107550000D03*
X156437500Y-108500000D03*
D11*
X158500000Y-77325000D03*
X158500000Y-75675000D03*
D10*
X154562500Y-105450000D03*
X154562500Y-103550000D03*
X156437500Y-104500000D03*
D11*
X152450000Y-73325000D03*
X152450000Y-71675000D03*
X152450000Y-97325000D03*
X152450000Y-95675000D03*
D19*
X170000000Y-117000000D03*
X170000000Y-121150000D03*
D11*
X158500000Y-89325000D03*
X158500000Y-87675000D03*
D20*
X165750000Y-120537500D03*
X163850000Y-120537500D03*
X164800000Y-118662500D03*
D11*
X158500000Y-97325000D03*
X158500000Y-95675000D03*
X135000000Y-116200000D03*
X135000000Y-114550000D03*
D21*
X164687500Y-125975000D03*
X164687500Y-125325000D03*
X164687500Y-124675000D03*
X164687500Y-124025000D03*
X168912500Y-124025000D03*
X168912500Y-124675000D03*
X168912500Y-125325000D03*
X168912500Y-125975000D03*
D10*
X154562500Y-97450000D03*
X154562500Y-95550000D03*
X156437500Y-96500000D03*
D11*
X152450000Y-113325000D03*
X152450000Y-111675000D03*
M02*
