M48
; DRILL file {KiCad (6.0.7)} date Tue Jan 31 21:08:53 2023
; FORMAT={-:-/ absolute / metric / decimal}
; #@! TF.CreationDate,2023-01-31T21:08:53+00:00
; #@! TF.GenerationSoftware,Kicad,Pcbnew,(6.0.7)
; #@! TF.FileFunction,Plated,1,4,PTH
FMAT,2
METRIC
; #@! TA.AperFunction,Plated,PTH,ViaDrill
T1C0.200
; #@! TA.AperFunction,Plated,PTH,ViaDrill
T2C0.400
; #@! TA.AperFunction,Plated,PTH,ComponentDrill
T3C0.600
; #@! TA.AperFunction,Plated,PTH,ComponentDrill
T4C1.000
; #@! TA.AperFunction,Plated,PTH,ComponentDrill
T5C1.020
; #@! TA.AperFunction,Plated,PTH,ComponentDrill
T6C1.100
; #@! TA.AperFunction,Plated,PTH,ComponentDrill
T7C1.300
%
G90
G05
T1
X152.5Y-118.0
X152.5Y-122.5
X155.0Y-115.0
X159.0Y-125.2
X160.0Y-115.0
X165.0Y-115.0
X167.0Y-126.0
X167.5Y-132.5
X172.5Y-127.5
X175.0Y-115.0
X177.5Y-117.5
X177.5Y-127.5
X177.5Y-132.5
X180.0Y-125.0
T2
X150.8Y-65.2
X150.8Y-69.4
X150.8Y-73.4
X150.8Y-77.4
X150.8Y-81.2
X150.8Y-85.4
X150.8Y-89.4
X150.8Y-93.2
X150.8Y-97.0
X150.8Y-113.2
X151.0Y-100.6
X151.0Y-104.8
X151.0Y-108.6
X151.2Y-106.6
X160.0Y-66.6
X160.0Y-70.6
X160.0Y-74.6
X160.0Y-78.2
X160.0Y-82.4
X160.0Y-86.4
X160.0Y-90.4
X160.0Y-94.4
X160.0Y-98.4
X160.0Y-102.4
X160.0Y-106.4
X160.0Y-110.4
X160.5Y-114.0
X161.8Y-122.4
X162.8Y-127.6
X168.2Y-128.4
X170.0Y-114.6
T3
X182.3Y-91.02
X182.3Y-92.29
X182.3Y-93.56
X182.3Y-94.83
X182.3Y-96.1
X182.3Y-97.37
X182.3Y-98.64
X182.3Y-99.91
X182.3Y-101.18
X182.3Y-102.45
X182.3Y-103.72
X182.3Y-104.99
X182.3Y-106.26
X182.3Y-107.53
X182.3Y-108.8
X182.3Y-110.07
X182.3Y-111.34
X182.3Y-112.61
X182.3Y-113.88
X182.3Y-115.15
X182.3Y-116.42
X182.3Y-117.69
X182.3Y-118.96
X182.3Y-120.23
X182.3Y-121.5
T4
X107.1Y-95.15
X107.1Y-97.69
X107.1Y-100.23
X107.1Y-102.77
X107.1Y-105.31
X107.1Y-107.85
X114.5Y-118.96
X114.5Y-121.5
X114.5Y-124.04
X114.5Y-126.58
X143.12Y-116.8
X145.66Y-116.8
X145.75Y-102.42
X145.75Y-104.96
X145.75Y-107.5
X145.75Y-110.04
X148.2Y-116.8
X153.06Y-132.4
X155.6Y-132.4
X161.46Y-132.4
X164.0Y-132.4
T5
X120.36Y-62.62
X120.36Y-65.16
X120.36Y-67.7
X120.36Y-70.24
X120.36Y-72.78
X120.36Y-75.32
X120.36Y-77.86
X120.36Y-80.4
X120.36Y-82.94
X120.36Y-85.48
X120.36Y-88.02
X120.36Y-90.56
X120.36Y-93.1
X120.36Y-95.64
X120.36Y-98.18
X120.36Y-100.72
X120.36Y-103.26
X120.36Y-105.8
X120.36Y-108.34
X120.36Y-110.88
X126.71Y-110.65
X129.25Y-110.65
X131.79Y-110.65
X138.14Y-62.62
X138.14Y-65.16
X138.14Y-67.7
X138.14Y-70.24
X138.14Y-72.78
X138.14Y-75.32
X138.14Y-77.86
X138.14Y-80.4
X138.14Y-82.94
X138.14Y-85.48
X138.14Y-88.02
X138.14Y-90.56
X138.14Y-93.1
X138.14Y-95.64
X138.14Y-98.18
X138.14Y-100.72
X138.14Y-103.26
X138.14Y-105.8
X138.14Y-108.34
X138.14Y-110.88
T6
X105.25Y-84.75
X105.25Y-89.25
X111.75Y-84.75
X111.75Y-89.25
T7
X163.75Y-66.75
X173.75Y-64.25
X173.75Y-69.25
T4
X125.742Y-127.8G85X125.742Y-125.8
G05
X129.442Y-123.8G85X131.442Y-123.8
G05
X129.442Y-129.8G85X131.442Y-129.8
G05
T0
M30
