%TF.GenerationSoftware,KiCad,Pcbnew,(6.0.7)*%
%TF.CreationDate,2023-01-31T21:08:54+00:00*%
%TF.ProjectId,dmf-5008-backpack,646d662d-3530-4303-982d-6261636b7061,rev?*%
%TF.SameCoordinates,Original*%
%TF.FileFunction,Drillmap*%
%TF.FilePolarity,Positive*%
%FSLAX45Y45*%
G04 Gerber Fmt 4.5, Leading zero omitted, Abs format (unit mm)*
G04 Created by KiCad (PCBNEW (6.0.7)) date 2023-01-31 21:08:54*
%MOMM*%
%LPD*%
G01*
G04 APERTURE LIST*
%ADD10C,0.150000*%
%ADD11C,0.200000*%
%ADD12C,0.180000*%
%ADD13C,0.250000*%
G04 APERTURE END LIST*
D10*
X10850000Y-12750000D02*
X10300000Y-12750000D01*
X18500000Y-6100000D02*
X18500000Y-13500000D01*
X10300000Y-6850000D02*
X10800000Y-6850000D01*
X10800000Y-6850000D02*
X10800000Y-6100000D01*
X10850000Y-13500000D02*
X10850000Y-12750000D01*
X10800000Y-6100000D02*
X18500000Y-6100000D01*
X18500000Y-13500000D02*
X10850000Y-13500000D01*
X10300000Y-12750000D02*
X10300000Y-6850000D01*
D11*
D10*
X12607500Y-6503000D02*
X12757500Y-6653000D01*
X12757500Y-6503000D02*
X12607500Y-6653000D01*
X13092500Y-6503000D02*
X13242500Y-6653000D01*
X13242500Y-6503000D02*
X13092500Y-6653000D01*
D12*
X12742500Y-6275000D02*
G75*
G03*
X12742500Y-6275000I-90000J0D01*
G01*
X13287500Y-6275000D02*
G75*
G03*
X13287500Y-6275000I-90000J0D01*
G01*
D13*
X10450000Y-7425000D02*
X10450000Y-7675000D01*
X10325000Y-7550000D02*
X10575000Y-7550000D01*
X10450000Y-11675000D02*
X10450000Y-11925000D01*
X10325000Y-11800000D02*
X10575000Y-11800000D01*
X10550000Y-6925000D02*
X10550000Y-7175000D01*
X10425000Y-7050000D02*
X10675000Y-7050000D01*
X10550000Y-12275000D02*
X10550000Y-12525000D01*
X10425000Y-12400000D02*
X10675000Y-12400000D01*
X18350000Y-6475000D02*
X18350000Y-6725000D01*
X18225000Y-6600000D02*
X18475000Y-6600000D01*
X18350000Y-8500000D02*
X18350000Y-8750000D01*
X18225000Y-8625000D02*
X18475000Y-8625000D01*
X18350000Y-12775000D02*
X18350000Y-13025000D01*
X18225000Y-12900000D02*
X18475000Y-12900000D01*
D11*
X10550119Y-13817976D02*
X10550119Y-13617976D01*
X10597738Y-13617976D01*
X10626310Y-13627500D01*
X10645357Y-13646548D01*
X10654881Y-13665595D01*
X10664405Y-13703690D01*
X10664405Y-13732262D01*
X10654881Y-13770357D01*
X10645357Y-13789405D01*
X10626310Y-13808452D01*
X10597738Y-13817976D01*
X10550119Y-13817976D01*
X10750119Y-13817976D02*
X10750119Y-13684643D01*
X10750119Y-13722738D02*
X10759643Y-13703690D01*
X10769167Y-13694167D01*
X10788214Y-13684643D01*
X10807262Y-13684643D01*
X10873929Y-13817976D02*
X10873929Y-13684643D01*
X10873929Y-13617976D02*
X10864405Y-13627500D01*
X10873929Y-13637024D01*
X10883452Y-13627500D01*
X10873929Y-13617976D01*
X10873929Y-13637024D01*
X10997738Y-13817976D02*
X10978690Y-13808452D01*
X10969167Y-13789405D01*
X10969167Y-13617976D01*
X11102500Y-13817976D02*
X11083452Y-13808452D01*
X11073929Y-13789405D01*
X11073929Y-13617976D01*
X11331071Y-13817976D02*
X11331071Y-13617976D01*
X11397738Y-13760833D01*
X11464405Y-13617976D01*
X11464405Y-13817976D01*
X11645357Y-13817976D02*
X11645357Y-13713214D01*
X11635833Y-13694167D01*
X11616786Y-13684643D01*
X11578690Y-13684643D01*
X11559643Y-13694167D01*
X11645357Y-13808452D02*
X11626309Y-13817976D01*
X11578690Y-13817976D01*
X11559643Y-13808452D01*
X11550119Y-13789405D01*
X11550119Y-13770357D01*
X11559643Y-13751309D01*
X11578690Y-13741786D01*
X11626309Y-13741786D01*
X11645357Y-13732262D01*
X11740595Y-13684643D02*
X11740595Y-13884643D01*
X11740595Y-13694167D02*
X11759643Y-13684643D01*
X11797738Y-13684643D01*
X11816786Y-13694167D01*
X11826309Y-13703690D01*
X11835833Y-13722738D01*
X11835833Y-13779881D01*
X11826309Y-13798928D01*
X11816786Y-13808452D01*
X11797738Y-13817976D01*
X11759643Y-13817976D01*
X11740595Y-13808452D01*
X11921548Y-13798928D02*
X11931071Y-13808452D01*
X11921548Y-13817976D01*
X11912024Y-13808452D01*
X11921548Y-13798928D01*
X11921548Y-13817976D01*
X11921548Y-13694167D02*
X11931071Y-13703690D01*
X11921548Y-13713214D01*
X11912024Y-13703690D01*
X11921548Y-13694167D01*
X11921548Y-13713214D01*
D10*
X10142500Y-14072500D02*
X10292500Y-14222500D01*
X10292500Y-14072500D02*
X10142500Y-14222500D01*
D11*
X10654881Y-14237976D02*
X10540595Y-14237976D01*
X10597738Y-14237976D02*
X10597738Y-14037976D01*
X10578690Y-14066548D01*
X10559643Y-14085595D01*
X10540595Y-14095119D01*
X10740595Y-14218928D02*
X10750119Y-14228452D01*
X10740595Y-14237976D01*
X10731071Y-14228452D01*
X10740595Y-14218928D01*
X10740595Y-14237976D01*
X10931071Y-14037976D02*
X10835833Y-14037976D01*
X10826310Y-14133214D01*
X10835833Y-14123690D01*
X10854881Y-14114167D01*
X10902500Y-14114167D01*
X10921548Y-14123690D01*
X10931071Y-14133214D01*
X10940595Y-14152262D01*
X10940595Y-14199881D01*
X10931071Y-14218928D01*
X10921548Y-14228452D01*
X10902500Y-14237976D01*
X10854881Y-14237976D01*
X10835833Y-14228452D01*
X10826310Y-14218928D01*
X11064405Y-14037976D02*
X11083452Y-14037976D01*
X11102500Y-14047500D01*
X11112024Y-14057024D01*
X11121548Y-14076071D01*
X11131071Y-14114167D01*
X11131071Y-14161786D01*
X11121548Y-14199881D01*
X11112024Y-14218928D01*
X11102500Y-14228452D01*
X11083452Y-14237976D01*
X11064405Y-14237976D01*
X11045357Y-14228452D01*
X11035833Y-14218928D01*
X11026310Y-14199881D01*
X11016786Y-14161786D01*
X11016786Y-14114167D01*
X11026310Y-14076071D01*
X11035833Y-14057024D01*
X11045357Y-14047500D01*
X11064405Y-14037976D01*
X11254881Y-14037976D02*
X11273928Y-14037976D01*
X11292976Y-14047500D01*
X11302500Y-14057024D01*
X11312024Y-14076071D01*
X11321548Y-14114167D01*
X11321548Y-14161786D01*
X11312024Y-14199881D01*
X11302500Y-14218928D01*
X11292976Y-14228452D01*
X11273928Y-14237976D01*
X11254881Y-14237976D01*
X11235833Y-14228452D01*
X11226309Y-14218928D01*
X11216786Y-14199881D01*
X11207262Y-14161786D01*
X11207262Y-14114167D01*
X11216786Y-14076071D01*
X11226309Y-14057024D01*
X11235833Y-14047500D01*
X11254881Y-14037976D01*
X11407262Y-14237976D02*
X11407262Y-14104643D01*
X11407262Y-14123690D02*
X11416786Y-14114167D01*
X11435833Y-14104643D01*
X11464405Y-14104643D01*
X11483452Y-14114167D01*
X11492976Y-14133214D01*
X11492976Y-14237976D01*
X11492976Y-14133214D02*
X11502500Y-14114167D01*
X11521548Y-14104643D01*
X11550119Y-14104643D01*
X11569167Y-14114167D01*
X11578690Y-14133214D01*
X11578690Y-14237976D01*
X11673928Y-14237976D02*
X11673928Y-14104643D01*
X11673928Y-14123690D02*
X11683452Y-14114167D01*
X11702500Y-14104643D01*
X11731071Y-14104643D01*
X11750119Y-14114167D01*
X11759643Y-14133214D01*
X11759643Y-14237976D01*
X11759643Y-14133214D02*
X11769167Y-14114167D01*
X11788214Y-14104643D01*
X11816786Y-14104643D01*
X11835833Y-14114167D01*
X11845357Y-14133214D01*
X11845357Y-14237976D01*
X12235833Y-14028452D02*
X12064405Y-14285595D01*
X12492976Y-14037976D02*
X12512024Y-14037976D01*
X12531071Y-14047500D01*
X12540595Y-14057024D01*
X12550119Y-14076071D01*
X12559643Y-14114167D01*
X12559643Y-14161786D01*
X12550119Y-14199881D01*
X12540595Y-14218928D01*
X12531071Y-14228452D01*
X12512024Y-14237976D01*
X12492976Y-14237976D01*
X12473928Y-14228452D01*
X12464405Y-14218928D01*
X12454881Y-14199881D01*
X12445357Y-14161786D01*
X12445357Y-14114167D01*
X12454881Y-14076071D01*
X12464405Y-14057024D01*
X12473928Y-14047500D01*
X12492976Y-14037976D01*
X12645357Y-14218928D02*
X12654881Y-14228452D01*
X12645357Y-14237976D01*
X12635833Y-14228452D01*
X12645357Y-14218928D01*
X12645357Y-14237976D01*
X12778690Y-14037976D02*
X12797738Y-14037976D01*
X12816786Y-14047500D01*
X12826309Y-14057024D01*
X12835833Y-14076071D01*
X12845357Y-14114167D01*
X12845357Y-14161786D01*
X12835833Y-14199881D01*
X12826309Y-14218928D01*
X12816786Y-14228452D01*
X12797738Y-14237976D01*
X12778690Y-14237976D01*
X12759643Y-14228452D01*
X12750119Y-14218928D01*
X12740595Y-14199881D01*
X12731071Y-14161786D01*
X12731071Y-14114167D01*
X12740595Y-14076071D01*
X12750119Y-14057024D01*
X12759643Y-14047500D01*
X12778690Y-14037976D01*
X13026309Y-14037976D02*
X12931071Y-14037976D01*
X12921548Y-14133214D01*
X12931071Y-14123690D01*
X12950119Y-14114167D01*
X12997738Y-14114167D01*
X13016786Y-14123690D01*
X13026309Y-14133214D01*
X13035833Y-14152262D01*
X13035833Y-14199881D01*
X13026309Y-14218928D01*
X13016786Y-14228452D01*
X12997738Y-14237976D01*
X12950119Y-14237976D01*
X12931071Y-14228452D01*
X12921548Y-14218928D01*
X13131071Y-14237976D02*
X13169167Y-14237976D01*
X13188214Y-14228452D01*
X13197738Y-14218928D01*
X13216786Y-14190357D01*
X13226309Y-14152262D01*
X13226309Y-14076071D01*
X13216786Y-14057024D01*
X13207262Y-14047500D01*
X13188214Y-14037976D01*
X13150119Y-14037976D01*
X13131071Y-14047500D01*
X13121548Y-14057024D01*
X13112024Y-14076071D01*
X13112024Y-14123690D01*
X13121548Y-14142738D01*
X13131071Y-14152262D01*
X13150119Y-14161786D01*
X13188214Y-14161786D01*
X13207262Y-14152262D01*
X13216786Y-14142738D01*
X13226309Y-14123690D01*
X13416786Y-14237976D02*
X13302500Y-14237976D01*
X13359643Y-14237976D02*
X13359643Y-14037976D01*
X13340595Y-14066548D01*
X13321548Y-14085595D01*
X13302500Y-14095119D01*
X13492976Y-14037976D02*
X13492976Y-14076071D01*
X13569167Y-14037976D02*
X13569167Y-14076071D01*
X13864405Y-14314167D02*
X13854881Y-14304643D01*
X13835833Y-14276071D01*
X13826309Y-14257024D01*
X13816786Y-14228452D01*
X13807262Y-14180833D01*
X13807262Y-14142738D01*
X13816786Y-14095119D01*
X13826309Y-14066548D01*
X13835833Y-14047500D01*
X13854881Y-14018928D01*
X13864405Y-14009405D01*
X13931071Y-14057024D02*
X13940595Y-14047500D01*
X13959643Y-14037976D01*
X14007262Y-14037976D01*
X14026309Y-14047500D01*
X14035833Y-14057024D01*
X14045357Y-14076071D01*
X14045357Y-14095119D01*
X14035833Y-14123690D01*
X13921548Y-14237976D01*
X14045357Y-14237976D01*
X14283452Y-14237976D02*
X14283452Y-14037976D01*
X14369167Y-14237976D02*
X14369167Y-14133214D01*
X14359643Y-14114167D01*
X14340595Y-14104643D01*
X14312024Y-14104643D01*
X14292976Y-14114167D01*
X14283452Y-14123690D01*
X14492976Y-14237976D02*
X14473928Y-14228452D01*
X14464405Y-14218928D01*
X14454881Y-14199881D01*
X14454881Y-14142738D01*
X14464405Y-14123690D01*
X14473928Y-14114167D01*
X14492976Y-14104643D01*
X14521548Y-14104643D01*
X14540595Y-14114167D01*
X14550119Y-14123690D01*
X14559643Y-14142738D01*
X14559643Y-14199881D01*
X14550119Y-14218928D01*
X14540595Y-14228452D01*
X14521548Y-14237976D01*
X14492976Y-14237976D01*
X14673928Y-14237976D02*
X14654881Y-14228452D01*
X14645357Y-14209405D01*
X14645357Y-14037976D01*
X14826309Y-14228452D02*
X14807262Y-14237976D01*
X14769167Y-14237976D01*
X14750119Y-14228452D01*
X14740595Y-14209405D01*
X14740595Y-14133214D01*
X14750119Y-14114167D01*
X14769167Y-14104643D01*
X14807262Y-14104643D01*
X14826309Y-14114167D01*
X14835833Y-14133214D01*
X14835833Y-14152262D01*
X14740595Y-14171309D01*
X14912024Y-14228452D02*
X14931071Y-14237976D01*
X14969167Y-14237976D01*
X14988214Y-14228452D01*
X14997738Y-14209405D01*
X14997738Y-14199881D01*
X14988214Y-14180833D01*
X14969167Y-14171309D01*
X14940595Y-14171309D01*
X14921548Y-14161786D01*
X14912024Y-14142738D01*
X14912024Y-14133214D01*
X14921548Y-14114167D01*
X14940595Y-14104643D01*
X14969167Y-14104643D01*
X14988214Y-14114167D01*
X15064405Y-14314167D02*
X15073928Y-14304643D01*
X15092976Y-14276071D01*
X15102500Y-14257024D01*
X15112024Y-14228452D01*
X15121548Y-14180833D01*
X15121548Y-14142738D01*
X15112024Y-14095119D01*
X15102500Y-14066548D01*
X15092976Y-14047500D01*
X15073928Y-14018928D01*
X15064405Y-14009405D01*
X15426309Y-14314167D02*
X15416786Y-14304643D01*
X15397738Y-14276071D01*
X15388214Y-14257024D01*
X15378690Y-14228452D01*
X15369167Y-14180833D01*
X15369167Y-14142738D01*
X15378690Y-14095119D01*
X15388214Y-14066548D01*
X15397738Y-14047500D01*
X15416786Y-14018928D01*
X15426309Y-14009405D01*
X15502500Y-14104643D02*
X15502500Y-14237976D01*
X15502500Y-14123690D02*
X15512024Y-14114167D01*
X15531071Y-14104643D01*
X15559643Y-14104643D01*
X15578690Y-14114167D01*
X15588214Y-14133214D01*
X15588214Y-14237976D01*
X15712024Y-14237976D02*
X15692976Y-14228452D01*
X15683452Y-14218928D01*
X15673928Y-14199881D01*
X15673928Y-14142738D01*
X15683452Y-14123690D01*
X15692976Y-14114167D01*
X15712024Y-14104643D01*
X15740595Y-14104643D01*
X15759643Y-14114167D01*
X15769167Y-14123690D01*
X15778690Y-14142738D01*
X15778690Y-14199881D01*
X15769167Y-14218928D01*
X15759643Y-14228452D01*
X15740595Y-14237976D01*
X15712024Y-14237976D01*
X15835833Y-14104643D02*
X15912024Y-14104643D01*
X15864405Y-14037976D02*
X15864405Y-14209405D01*
X15873928Y-14228452D01*
X15892976Y-14237976D01*
X15912024Y-14237976D01*
X16131071Y-14104643D02*
X16131071Y-14304643D01*
X16131071Y-14114167D02*
X16150119Y-14104643D01*
X16188214Y-14104643D01*
X16207262Y-14114167D01*
X16216786Y-14123690D01*
X16226309Y-14142738D01*
X16226309Y-14199881D01*
X16216786Y-14218928D01*
X16207262Y-14228452D01*
X16188214Y-14237976D01*
X16150119Y-14237976D01*
X16131071Y-14228452D01*
X16340595Y-14237976D02*
X16321548Y-14228452D01*
X16312024Y-14209405D01*
X16312024Y-14037976D01*
X16502500Y-14237976D02*
X16502500Y-14133214D01*
X16492976Y-14114167D01*
X16473928Y-14104643D01*
X16435833Y-14104643D01*
X16416786Y-14114167D01*
X16502500Y-14228452D02*
X16483452Y-14237976D01*
X16435833Y-14237976D01*
X16416786Y-14228452D01*
X16407262Y-14209405D01*
X16407262Y-14190357D01*
X16416786Y-14171309D01*
X16435833Y-14161786D01*
X16483452Y-14161786D01*
X16502500Y-14152262D01*
X16569167Y-14104643D02*
X16645357Y-14104643D01*
X16597738Y-14037976D02*
X16597738Y-14209405D01*
X16607262Y-14228452D01*
X16626309Y-14237976D01*
X16645357Y-14237976D01*
X16788214Y-14228452D02*
X16769167Y-14237976D01*
X16731071Y-14237976D01*
X16712024Y-14228452D01*
X16702500Y-14209405D01*
X16702500Y-14133214D01*
X16712024Y-14114167D01*
X16731071Y-14104643D01*
X16769167Y-14104643D01*
X16788214Y-14114167D01*
X16797738Y-14133214D01*
X16797738Y-14152262D01*
X16702500Y-14171309D01*
X16969167Y-14237976D02*
X16969167Y-14037976D01*
X16969167Y-14228452D02*
X16950119Y-14237976D01*
X16912024Y-14237976D01*
X16892976Y-14228452D01*
X16883452Y-14218928D01*
X16873929Y-14199881D01*
X16873929Y-14142738D01*
X16883452Y-14123690D01*
X16892976Y-14114167D01*
X16912024Y-14104643D01*
X16950119Y-14104643D01*
X16969167Y-14114167D01*
X17045357Y-14314167D02*
X17054881Y-14304643D01*
X17073929Y-14276071D01*
X17083452Y-14257024D01*
X17092976Y-14228452D01*
X17102500Y-14180833D01*
X17102500Y-14142738D01*
X17092976Y-14095119D01*
X17083452Y-14066548D01*
X17073929Y-14047500D01*
X17054881Y-14018928D01*
X17045357Y-14009405D01*
D12*
X10292500Y-14417500D02*
G75*
G03*
X10292500Y-14417500I-90000J0D01*
G01*
D11*
X10654881Y-14507976D02*
X10540595Y-14507976D01*
X10597738Y-14507976D02*
X10597738Y-14307976D01*
X10578690Y-14336548D01*
X10559643Y-14355595D01*
X10540595Y-14365119D01*
X10740595Y-14488928D02*
X10750119Y-14498452D01*
X10740595Y-14507976D01*
X10731071Y-14498452D01*
X10740595Y-14488928D01*
X10740595Y-14507976D01*
X10864405Y-14393690D02*
X10845357Y-14384167D01*
X10835833Y-14374643D01*
X10826310Y-14355595D01*
X10826310Y-14346071D01*
X10835833Y-14327024D01*
X10845357Y-14317500D01*
X10864405Y-14307976D01*
X10902500Y-14307976D01*
X10921548Y-14317500D01*
X10931071Y-14327024D01*
X10940595Y-14346071D01*
X10940595Y-14355595D01*
X10931071Y-14374643D01*
X10921548Y-14384167D01*
X10902500Y-14393690D01*
X10864405Y-14393690D01*
X10845357Y-14403214D01*
X10835833Y-14412738D01*
X10826310Y-14431786D01*
X10826310Y-14469881D01*
X10835833Y-14488928D01*
X10845357Y-14498452D01*
X10864405Y-14507976D01*
X10902500Y-14507976D01*
X10921548Y-14498452D01*
X10931071Y-14488928D01*
X10940595Y-14469881D01*
X10940595Y-14431786D01*
X10931071Y-14412738D01*
X10921548Y-14403214D01*
X10902500Y-14393690D01*
X11064405Y-14307976D02*
X11083452Y-14307976D01*
X11102500Y-14317500D01*
X11112024Y-14327024D01*
X11121548Y-14346071D01*
X11131071Y-14384167D01*
X11131071Y-14431786D01*
X11121548Y-14469881D01*
X11112024Y-14488928D01*
X11102500Y-14498452D01*
X11083452Y-14507976D01*
X11064405Y-14507976D01*
X11045357Y-14498452D01*
X11035833Y-14488928D01*
X11026310Y-14469881D01*
X11016786Y-14431786D01*
X11016786Y-14384167D01*
X11026310Y-14346071D01*
X11035833Y-14327024D01*
X11045357Y-14317500D01*
X11064405Y-14307976D01*
X11254881Y-14307976D02*
X11273928Y-14307976D01*
X11292976Y-14317500D01*
X11302500Y-14327024D01*
X11312024Y-14346071D01*
X11321548Y-14384167D01*
X11321548Y-14431786D01*
X11312024Y-14469881D01*
X11302500Y-14488928D01*
X11292976Y-14498452D01*
X11273928Y-14507976D01*
X11254881Y-14507976D01*
X11235833Y-14498452D01*
X11226309Y-14488928D01*
X11216786Y-14469881D01*
X11207262Y-14431786D01*
X11207262Y-14384167D01*
X11216786Y-14346071D01*
X11226309Y-14327024D01*
X11235833Y-14317500D01*
X11254881Y-14307976D01*
X11407262Y-14507976D02*
X11407262Y-14374643D01*
X11407262Y-14393690D02*
X11416786Y-14384167D01*
X11435833Y-14374643D01*
X11464405Y-14374643D01*
X11483452Y-14384167D01*
X11492976Y-14403214D01*
X11492976Y-14507976D01*
X11492976Y-14403214D02*
X11502500Y-14384167D01*
X11521548Y-14374643D01*
X11550119Y-14374643D01*
X11569167Y-14384167D01*
X11578690Y-14403214D01*
X11578690Y-14507976D01*
X11673928Y-14507976D02*
X11673928Y-14374643D01*
X11673928Y-14393690D02*
X11683452Y-14384167D01*
X11702500Y-14374643D01*
X11731071Y-14374643D01*
X11750119Y-14384167D01*
X11759643Y-14403214D01*
X11759643Y-14507976D01*
X11759643Y-14403214D02*
X11769167Y-14384167D01*
X11788214Y-14374643D01*
X11816786Y-14374643D01*
X11835833Y-14384167D01*
X11845357Y-14403214D01*
X11845357Y-14507976D01*
X12235833Y-14298452D02*
X12064405Y-14555595D01*
X12492976Y-14307976D02*
X12512024Y-14307976D01*
X12531071Y-14317500D01*
X12540595Y-14327024D01*
X12550119Y-14346071D01*
X12559643Y-14384167D01*
X12559643Y-14431786D01*
X12550119Y-14469881D01*
X12540595Y-14488928D01*
X12531071Y-14498452D01*
X12512024Y-14507976D01*
X12492976Y-14507976D01*
X12473928Y-14498452D01*
X12464405Y-14488928D01*
X12454881Y-14469881D01*
X12445357Y-14431786D01*
X12445357Y-14384167D01*
X12454881Y-14346071D01*
X12464405Y-14327024D01*
X12473928Y-14317500D01*
X12492976Y-14307976D01*
X12645357Y-14488928D02*
X12654881Y-14498452D01*
X12645357Y-14507976D01*
X12635833Y-14498452D01*
X12645357Y-14488928D01*
X12645357Y-14507976D01*
X12778690Y-14307976D02*
X12797738Y-14307976D01*
X12816786Y-14317500D01*
X12826309Y-14327024D01*
X12835833Y-14346071D01*
X12845357Y-14384167D01*
X12845357Y-14431786D01*
X12835833Y-14469881D01*
X12826309Y-14488928D01*
X12816786Y-14498452D01*
X12797738Y-14507976D01*
X12778690Y-14507976D01*
X12759643Y-14498452D01*
X12750119Y-14488928D01*
X12740595Y-14469881D01*
X12731071Y-14431786D01*
X12731071Y-14384167D01*
X12740595Y-14346071D01*
X12750119Y-14327024D01*
X12759643Y-14317500D01*
X12778690Y-14307976D01*
X12912024Y-14307976D02*
X13045357Y-14307976D01*
X12959643Y-14507976D01*
X13159643Y-14307976D02*
X13178690Y-14307976D01*
X13197738Y-14317500D01*
X13207262Y-14327024D01*
X13216786Y-14346071D01*
X13226309Y-14384167D01*
X13226309Y-14431786D01*
X13216786Y-14469881D01*
X13207262Y-14488928D01*
X13197738Y-14498452D01*
X13178690Y-14507976D01*
X13159643Y-14507976D01*
X13140595Y-14498452D01*
X13131071Y-14488928D01*
X13121548Y-14469881D01*
X13112024Y-14431786D01*
X13112024Y-14384167D01*
X13121548Y-14346071D01*
X13131071Y-14327024D01*
X13140595Y-14317500D01*
X13159643Y-14307976D01*
X13321548Y-14507976D02*
X13359643Y-14507976D01*
X13378690Y-14498452D01*
X13388214Y-14488928D01*
X13407262Y-14460357D01*
X13416786Y-14422262D01*
X13416786Y-14346071D01*
X13407262Y-14327024D01*
X13397738Y-14317500D01*
X13378690Y-14307976D01*
X13340595Y-14307976D01*
X13321548Y-14317500D01*
X13312024Y-14327024D01*
X13302500Y-14346071D01*
X13302500Y-14393690D01*
X13312024Y-14412738D01*
X13321548Y-14422262D01*
X13340595Y-14431786D01*
X13378690Y-14431786D01*
X13397738Y-14422262D01*
X13407262Y-14412738D01*
X13416786Y-14393690D01*
X13492976Y-14307976D02*
X13492976Y-14346071D01*
X13569167Y-14307976D02*
X13569167Y-14346071D01*
X13864405Y-14584167D02*
X13854881Y-14574643D01*
X13835833Y-14546071D01*
X13826309Y-14527024D01*
X13816786Y-14498452D01*
X13807262Y-14450833D01*
X13807262Y-14412738D01*
X13816786Y-14365119D01*
X13826309Y-14336548D01*
X13835833Y-14317500D01*
X13854881Y-14288928D01*
X13864405Y-14279405D01*
X13931071Y-14327024D02*
X13940595Y-14317500D01*
X13959643Y-14307976D01*
X14007262Y-14307976D01*
X14026309Y-14317500D01*
X14035833Y-14327024D01*
X14045357Y-14346071D01*
X14045357Y-14365119D01*
X14035833Y-14393690D01*
X13921548Y-14507976D01*
X14045357Y-14507976D01*
X14283452Y-14507976D02*
X14283452Y-14307976D01*
X14369167Y-14507976D02*
X14369167Y-14403214D01*
X14359643Y-14384167D01*
X14340595Y-14374643D01*
X14312024Y-14374643D01*
X14292976Y-14384167D01*
X14283452Y-14393690D01*
X14492976Y-14507976D02*
X14473928Y-14498452D01*
X14464405Y-14488928D01*
X14454881Y-14469881D01*
X14454881Y-14412738D01*
X14464405Y-14393690D01*
X14473928Y-14384167D01*
X14492976Y-14374643D01*
X14521548Y-14374643D01*
X14540595Y-14384167D01*
X14550119Y-14393690D01*
X14559643Y-14412738D01*
X14559643Y-14469881D01*
X14550119Y-14488928D01*
X14540595Y-14498452D01*
X14521548Y-14507976D01*
X14492976Y-14507976D01*
X14673928Y-14507976D02*
X14654881Y-14498452D01*
X14645357Y-14479405D01*
X14645357Y-14307976D01*
X14826309Y-14498452D02*
X14807262Y-14507976D01*
X14769167Y-14507976D01*
X14750119Y-14498452D01*
X14740595Y-14479405D01*
X14740595Y-14403214D01*
X14750119Y-14384167D01*
X14769167Y-14374643D01*
X14807262Y-14374643D01*
X14826309Y-14384167D01*
X14835833Y-14403214D01*
X14835833Y-14422262D01*
X14740595Y-14441309D01*
X14912024Y-14498452D02*
X14931071Y-14507976D01*
X14969167Y-14507976D01*
X14988214Y-14498452D01*
X14997738Y-14479405D01*
X14997738Y-14469881D01*
X14988214Y-14450833D01*
X14969167Y-14441309D01*
X14940595Y-14441309D01*
X14921548Y-14431786D01*
X14912024Y-14412738D01*
X14912024Y-14403214D01*
X14921548Y-14384167D01*
X14940595Y-14374643D01*
X14969167Y-14374643D01*
X14988214Y-14384167D01*
X15064405Y-14584167D02*
X15073928Y-14574643D01*
X15092976Y-14546071D01*
X15102500Y-14527024D01*
X15112024Y-14498452D01*
X15121548Y-14450833D01*
X15121548Y-14412738D01*
X15112024Y-14365119D01*
X15102500Y-14336548D01*
X15092976Y-14317500D01*
X15073928Y-14288928D01*
X15064405Y-14279405D01*
X15426309Y-14584167D02*
X15416786Y-14574643D01*
X15397738Y-14546071D01*
X15388214Y-14527024D01*
X15378690Y-14498452D01*
X15369167Y-14450833D01*
X15369167Y-14412738D01*
X15378690Y-14365119D01*
X15388214Y-14336548D01*
X15397738Y-14317500D01*
X15416786Y-14288928D01*
X15426309Y-14279405D01*
X15502500Y-14374643D02*
X15502500Y-14507976D01*
X15502500Y-14393690D02*
X15512024Y-14384167D01*
X15531071Y-14374643D01*
X15559643Y-14374643D01*
X15578690Y-14384167D01*
X15588214Y-14403214D01*
X15588214Y-14507976D01*
X15712024Y-14507976D02*
X15692976Y-14498452D01*
X15683452Y-14488928D01*
X15673928Y-14469881D01*
X15673928Y-14412738D01*
X15683452Y-14393690D01*
X15692976Y-14384167D01*
X15712024Y-14374643D01*
X15740595Y-14374643D01*
X15759643Y-14384167D01*
X15769167Y-14393690D01*
X15778690Y-14412738D01*
X15778690Y-14469881D01*
X15769167Y-14488928D01*
X15759643Y-14498452D01*
X15740595Y-14507976D01*
X15712024Y-14507976D01*
X15835833Y-14374643D02*
X15912024Y-14374643D01*
X15864405Y-14307976D02*
X15864405Y-14479405D01*
X15873928Y-14498452D01*
X15892976Y-14507976D01*
X15912024Y-14507976D01*
X16131071Y-14374643D02*
X16131071Y-14574643D01*
X16131071Y-14384167D02*
X16150119Y-14374643D01*
X16188214Y-14374643D01*
X16207262Y-14384167D01*
X16216786Y-14393690D01*
X16226309Y-14412738D01*
X16226309Y-14469881D01*
X16216786Y-14488928D01*
X16207262Y-14498452D01*
X16188214Y-14507976D01*
X16150119Y-14507976D01*
X16131071Y-14498452D01*
X16340595Y-14507976D02*
X16321548Y-14498452D01*
X16312024Y-14479405D01*
X16312024Y-14307976D01*
X16502500Y-14507976D02*
X16502500Y-14403214D01*
X16492976Y-14384167D01*
X16473928Y-14374643D01*
X16435833Y-14374643D01*
X16416786Y-14384167D01*
X16502500Y-14498452D02*
X16483452Y-14507976D01*
X16435833Y-14507976D01*
X16416786Y-14498452D01*
X16407262Y-14479405D01*
X16407262Y-14460357D01*
X16416786Y-14441309D01*
X16435833Y-14431786D01*
X16483452Y-14431786D01*
X16502500Y-14422262D01*
X16569167Y-14374643D02*
X16645357Y-14374643D01*
X16597738Y-14307976D02*
X16597738Y-14479405D01*
X16607262Y-14498452D01*
X16626309Y-14507976D01*
X16645357Y-14507976D01*
X16788214Y-14498452D02*
X16769167Y-14507976D01*
X16731071Y-14507976D01*
X16712024Y-14498452D01*
X16702500Y-14479405D01*
X16702500Y-14403214D01*
X16712024Y-14384167D01*
X16731071Y-14374643D01*
X16769167Y-14374643D01*
X16788214Y-14384167D01*
X16797738Y-14403214D01*
X16797738Y-14422262D01*
X16702500Y-14441309D01*
X16969167Y-14507976D02*
X16969167Y-14307976D01*
X16969167Y-14498452D02*
X16950119Y-14507976D01*
X16912024Y-14507976D01*
X16892976Y-14498452D01*
X16883452Y-14488928D01*
X16873929Y-14469881D01*
X16873929Y-14412738D01*
X16883452Y-14393690D01*
X16892976Y-14384167D01*
X16912024Y-14374643D01*
X16950119Y-14374643D01*
X16969167Y-14384167D01*
X17045357Y-14584167D02*
X17054881Y-14574643D01*
X17073929Y-14546071D01*
X17083452Y-14527024D01*
X17092976Y-14498452D01*
X17102500Y-14450833D01*
X17102500Y-14412738D01*
X17092976Y-14365119D01*
X17083452Y-14336548D01*
X17073929Y-14317500D01*
X17054881Y-14288928D01*
X17045357Y-14279405D01*
X10192500Y-14617500D02*
X10192500Y-14817500D01*
X10092500Y-14717500D02*
X10292500Y-14717500D01*
X10540595Y-14627024D02*
X10550119Y-14617500D01*
X10569167Y-14607976D01*
X10616786Y-14607976D01*
X10635833Y-14617500D01*
X10645357Y-14627024D01*
X10654881Y-14646071D01*
X10654881Y-14665119D01*
X10645357Y-14693690D01*
X10531071Y-14807976D01*
X10654881Y-14807976D01*
X10740595Y-14788928D02*
X10750119Y-14798452D01*
X10740595Y-14807976D01*
X10731071Y-14798452D01*
X10740595Y-14788928D01*
X10740595Y-14807976D01*
X10931071Y-14607976D02*
X10835833Y-14607976D01*
X10826310Y-14703214D01*
X10835833Y-14693690D01*
X10854881Y-14684167D01*
X10902500Y-14684167D01*
X10921548Y-14693690D01*
X10931071Y-14703214D01*
X10940595Y-14722262D01*
X10940595Y-14769881D01*
X10931071Y-14788928D01*
X10921548Y-14798452D01*
X10902500Y-14807976D01*
X10854881Y-14807976D01*
X10835833Y-14798452D01*
X10826310Y-14788928D01*
X11064405Y-14607976D02*
X11083452Y-14607976D01*
X11102500Y-14617500D01*
X11112024Y-14627024D01*
X11121548Y-14646071D01*
X11131071Y-14684167D01*
X11131071Y-14731786D01*
X11121548Y-14769881D01*
X11112024Y-14788928D01*
X11102500Y-14798452D01*
X11083452Y-14807976D01*
X11064405Y-14807976D01*
X11045357Y-14798452D01*
X11035833Y-14788928D01*
X11026310Y-14769881D01*
X11016786Y-14731786D01*
X11016786Y-14684167D01*
X11026310Y-14646071D01*
X11035833Y-14627024D01*
X11045357Y-14617500D01*
X11064405Y-14607976D01*
X11254881Y-14607976D02*
X11273928Y-14607976D01*
X11292976Y-14617500D01*
X11302500Y-14627024D01*
X11312024Y-14646071D01*
X11321548Y-14684167D01*
X11321548Y-14731786D01*
X11312024Y-14769881D01*
X11302500Y-14788928D01*
X11292976Y-14798452D01*
X11273928Y-14807976D01*
X11254881Y-14807976D01*
X11235833Y-14798452D01*
X11226309Y-14788928D01*
X11216786Y-14769881D01*
X11207262Y-14731786D01*
X11207262Y-14684167D01*
X11216786Y-14646071D01*
X11226309Y-14627024D01*
X11235833Y-14617500D01*
X11254881Y-14607976D01*
X11407262Y-14807976D02*
X11407262Y-14674643D01*
X11407262Y-14693690D02*
X11416786Y-14684167D01*
X11435833Y-14674643D01*
X11464405Y-14674643D01*
X11483452Y-14684167D01*
X11492976Y-14703214D01*
X11492976Y-14807976D01*
X11492976Y-14703214D02*
X11502500Y-14684167D01*
X11521548Y-14674643D01*
X11550119Y-14674643D01*
X11569167Y-14684167D01*
X11578690Y-14703214D01*
X11578690Y-14807976D01*
X11673928Y-14807976D02*
X11673928Y-14674643D01*
X11673928Y-14693690D02*
X11683452Y-14684167D01*
X11702500Y-14674643D01*
X11731071Y-14674643D01*
X11750119Y-14684167D01*
X11759643Y-14703214D01*
X11759643Y-14807976D01*
X11759643Y-14703214D02*
X11769167Y-14684167D01*
X11788214Y-14674643D01*
X11816786Y-14674643D01*
X11835833Y-14684167D01*
X11845357Y-14703214D01*
X11845357Y-14807976D01*
X12235833Y-14598452D02*
X12064405Y-14855595D01*
X12492976Y-14607976D02*
X12512024Y-14607976D01*
X12531071Y-14617500D01*
X12540595Y-14627024D01*
X12550119Y-14646071D01*
X12559643Y-14684167D01*
X12559643Y-14731786D01*
X12550119Y-14769881D01*
X12540595Y-14788928D01*
X12531071Y-14798452D01*
X12512024Y-14807976D01*
X12492976Y-14807976D01*
X12473928Y-14798452D01*
X12464405Y-14788928D01*
X12454881Y-14769881D01*
X12445357Y-14731786D01*
X12445357Y-14684167D01*
X12454881Y-14646071D01*
X12464405Y-14627024D01*
X12473928Y-14617500D01*
X12492976Y-14607976D01*
X12645357Y-14788928D02*
X12654881Y-14798452D01*
X12645357Y-14807976D01*
X12635833Y-14798452D01*
X12645357Y-14788928D01*
X12645357Y-14807976D01*
X12778690Y-14607976D02*
X12797738Y-14607976D01*
X12816786Y-14617500D01*
X12826309Y-14627024D01*
X12835833Y-14646071D01*
X12845357Y-14684167D01*
X12845357Y-14731786D01*
X12835833Y-14769881D01*
X12826309Y-14788928D01*
X12816786Y-14798452D01*
X12797738Y-14807976D01*
X12778690Y-14807976D01*
X12759643Y-14798452D01*
X12750119Y-14788928D01*
X12740595Y-14769881D01*
X12731071Y-14731786D01*
X12731071Y-14684167D01*
X12740595Y-14646071D01*
X12750119Y-14627024D01*
X12759643Y-14617500D01*
X12778690Y-14607976D01*
X12940595Y-14807976D02*
X12978690Y-14807976D01*
X12997738Y-14798452D01*
X13007262Y-14788928D01*
X13026309Y-14760357D01*
X13035833Y-14722262D01*
X13035833Y-14646071D01*
X13026309Y-14627024D01*
X13016786Y-14617500D01*
X12997738Y-14607976D01*
X12959643Y-14607976D01*
X12940595Y-14617500D01*
X12931071Y-14627024D01*
X12921548Y-14646071D01*
X12921548Y-14693690D01*
X12931071Y-14712738D01*
X12940595Y-14722262D01*
X12959643Y-14731786D01*
X12997738Y-14731786D01*
X13016786Y-14722262D01*
X13026309Y-14712738D01*
X13035833Y-14693690D01*
X13150119Y-14693690D02*
X13131071Y-14684167D01*
X13121548Y-14674643D01*
X13112024Y-14655595D01*
X13112024Y-14646071D01*
X13121548Y-14627024D01*
X13131071Y-14617500D01*
X13150119Y-14607976D01*
X13188214Y-14607976D01*
X13207262Y-14617500D01*
X13216786Y-14627024D01*
X13226309Y-14646071D01*
X13226309Y-14655595D01*
X13216786Y-14674643D01*
X13207262Y-14684167D01*
X13188214Y-14693690D01*
X13150119Y-14693690D01*
X13131071Y-14703214D01*
X13121548Y-14712738D01*
X13112024Y-14731786D01*
X13112024Y-14769881D01*
X13121548Y-14788928D01*
X13131071Y-14798452D01*
X13150119Y-14807976D01*
X13188214Y-14807976D01*
X13207262Y-14798452D01*
X13216786Y-14788928D01*
X13226309Y-14769881D01*
X13226309Y-14731786D01*
X13216786Y-14712738D01*
X13207262Y-14703214D01*
X13188214Y-14693690D01*
X13397738Y-14674643D02*
X13397738Y-14807976D01*
X13350119Y-14598452D02*
X13302500Y-14741309D01*
X13426309Y-14741309D01*
X13492976Y-14607976D02*
X13492976Y-14646071D01*
X13569167Y-14607976D02*
X13569167Y-14646071D01*
X13864405Y-14884167D02*
X13854881Y-14874643D01*
X13835833Y-14846071D01*
X13826309Y-14827024D01*
X13816786Y-14798452D01*
X13807262Y-14750833D01*
X13807262Y-14712738D01*
X13816786Y-14665119D01*
X13826309Y-14636548D01*
X13835833Y-14617500D01*
X13854881Y-14588928D01*
X13864405Y-14579405D01*
X13921548Y-14607976D02*
X14054881Y-14607976D01*
X13969167Y-14807976D01*
X14283452Y-14807976D02*
X14283452Y-14607976D01*
X14369167Y-14807976D02*
X14369167Y-14703214D01*
X14359643Y-14684167D01*
X14340595Y-14674643D01*
X14312024Y-14674643D01*
X14292976Y-14684167D01*
X14283452Y-14693690D01*
X14492976Y-14807976D02*
X14473928Y-14798452D01*
X14464405Y-14788928D01*
X14454881Y-14769881D01*
X14454881Y-14712738D01*
X14464405Y-14693690D01*
X14473928Y-14684167D01*
X14492976Y-14674643D01*
X14521548Y-14674643D01*
X14540595Y-14684167D01*
X14550119Y-14693690D01*
X14559643Y-14712738D01*
X14559643Y-14769881D01*
X14550119Y-14788928D01*
X14540595Y-14798452D01*
X14521548Y-14807976D01*
X14492976Y-14807976D01*
X14673928Y-14807976D02*
X14654881Y-14798452D01*
X14645357Y-14779405D01*
X14645357Y-14607976D01*
X14826309Y-14798452D02*
X14807262Y-14807976D01*
X14769167Y-14807976D01*
X14750119Y-14798452D01*
X14740595Y-14779405D01*
X14740595Y-14703214D01*
X14750119Y-14684167D01*
X14769167Y-14674643D01*
X14807262Y-14674643D01*
X14826309Y-14684167D01*
X14835833Y-14703214D01*
X14835833Y-14722262D01*
X14740595Y-14741309D01*
X14912024Y-14798452D02*
X14931071Y-14807976D01*
X14969167Y-14807976D01*
X14988214Y-14798452D01*
X14997738Y-14779405D01*
X14997738Y-14769881D01*
X14988214Y-14750833D01*
X14969167Y-14741309D01*
X14940595Y-14741309D01*
X14921548Y-14731786D01*
X14912024Y-14712738D01*
X14912024Y-14703214D01*
X14921548Y-14684167D01*
X14940595Y-14674643D01*
X14969167Y-14674643D01*
X14988214Y-14684167D01*
X15064405Y-14884167D02*
X15073928Y-14874643D01*
X15092976Y-14846071D01*
X15102500Y-14827024D01*
X15112024Y-14798452D01*
X15121548Y-14750833D01*
X15121548Y-14712738D01*
X15112024Y-14665119D01*
X15102500Y-14636548D01*
X15092976Y-14617500D01*
X15073928Y-14588928D01*
X15064405Y-14579405D01*
X15426309Y-14884167D02*
X15416786Y-14874643D01*
X15397738Y-14846071D01*
X15388214Y-14827024D01*
X15378690Y-14798452D01*
X15369167Y-14750833D01*
X15369167Y-14712738D01*
X15378690Y-14665119D01*
X15388214Y-14636548D01*
X15397738Y-14617500D01*
X15416786Y-14588928D01*
X15426309Y-14579405D01*
X15502500Y-14674643D02*
X15502500Y-14807976D01*
X15502500Y-14693690D02*
X15512024Y-14684167D01*
X15531071Y-14674643D01*
X15559643Y-14674643D01*
X15578690Y-14684167D01*
X15588214Y-14703214D01*
X15588214Y-14807976D01*
X15712024Y-14807976D02*
X15692976Y-14798452D01*
X15683452Y-14788928D01*
X15673928Y-14769881D01*
X15673928Y-14712738D01*
X15683452Y-14693690D01*
X15692976Y-14684167D01*
X15712024Y-14674643D01*
X15740595Y-14674643D01*
X15759643Y-14684167D01*
X15769167Y-14693690D01*
X15778690Y-14712738D01*
X15778690Y-14769881D01*
X15769167Y-14788928D01*
X15759643Y-14798452D01*
X15740595Y-14807976D01*
X15712024Y-14807976D01*
X15835833Y-14674643D02*
X15912024Y-14674643D01*
X15864405Y-14607976D02*
X15864405Y-14779405D01*
X15873928Y-14798452D01*
X15892976Y-14807976D01*
X15912024Y-14807976D01*
X16131071Y-14674643D02*
X16131071Y-14874643D01*
X16131071Y-14684167D02*
X16150119Y-14674643D01*
X16188214Y-14674643D01*
X16207262Y-14684167D01*
X16216786Y-14693690D01*
X16226309Y-14712738D01*
X16226309Y-14769881D01*
X16216786Y-14788928D01*
X16207262Y-14798452D01*
X16188214Y-14807976D01*
X16150119Y-14807976D01*
X16131071Y-14798452D01*
X16340595Y-14807976D02*
X16321548Y-14798452D01*
X16312024Y-14779405D01*
X16312024Y-14607976D01*
X16502500Y-14807976D02*
X16502500Y-14703214D01*
X16492976Y-14684167D01*
X16473928Y-14674643D01*
X16435833Y-14674643D01*
X16416786Y-14684167D01*
X16502500Y-14798452D02*
X16483452Y-14807976D01*
X16435833Y-14807976D01*
X16416786Y-14798452D01*
X16407262Y-14779405D01*
X16407262Y-14760357D01*
X16416786Y-14741309D01*
X16435833Y-14731786D01*
X16483452Y-14731786D01*
X16502500Y-14722262D01*
X16569167Y-14674643D02*
X16645357Y-14674643D01*
X16597738Y-14607976D02*
X16597738Y-14779405D01*
X16607262Y-14798452D01*
X16626309Y-14807976D01*
X16645357Y-14807976D01*
X16788214Y-14798452D02*
X16769167Y-14807976D01*
X16731071Y-14807976D01*
X16712024Y-14798452D01*
X16702500Y-14779405D01*
X16702500Y-14703214D01*
X16712024Y-14684167D01*
X16731071Y-14674643D01*
X16769167Y-14674643D01*
X16788214Y-14684167D01*
X16797738Y-14703214D01*
X16797738Y-14722262D01*
X16702500Y-14741309D01*
X16969167Y-14807976D02*
X16969167Y-14607976D01*
X16969167Y-14798452D02*
X16950119Y-14807976D01*
X16912024Y-14807976D01*
X16892976Y-14798452D01*
X16883452Y-14788928D01*
X16873929Y-14769881D01*
X16873929Y-14712738D01*
X16883452Y-14693690D01*
X16892976Y-14684167D01*
X16912024Y-14674643D01*
X16950119Y-14674643D01*
X16969167Y-14684167D01*
X17045357Y-14884167D02*
X17054881Y-14874643D01*
X17073929Y-14846071D01*
X17083452Y-14827024D01*
X17092976Y-14798452D01*
X17102500Y-14750833D01*
X17102500Y-14712738D01*
X17092976Y-14665119D01*
X17083452Y-14636548D01*
X17073929Y-14617500D01*
X17054881Y-14588928D01*
X17045357Y-14579405D01*
M02*
