%TF.GenerationSoftware,KiCad,Pcbnew,(6.0.7)*%
%TF.CreationDate,2023-01-31T21:08:54+00:00*%
%TF.ProjectId,dmf-5008-backpack,646d662d-3530-4303-982d-6261636b7061,rev?*%
%TF.SameCoordinates,Original*%
%TF.FileFunction,Drillmap*%
%TF.FilePolarity,Positive*%
%FSLAX45Y45*%
G04 Gerber Fmt 4.5, Leading zero omitted, Abs format (unit mm)*
G04 Created by KiCad (PCBNEW (6.0.7)) date 2023-01-31 21:08:54*
%MOMM*%
%LPD*%
G01*
G04 APERTURE LIST*
%ADD10C,0.150000*%
%ADD11C,0.200000*%
%ADD12C,0.020000*%
%ADD13C,0.040000*%
%ADD14C,0.060000*%
%ADD15C,0.100000*%
%ADD16C,0.102000*%
%ADD17C,0.110000*%
%ADD18C,0.130000*%
G04 APERTURE END LIST*
D10*
X10850000Y-12750000D02*
X10300000Y-12750000D01*
X18500000Y-6100000D02*
X18500000Y-13500000D01*
X10300000Y-6850000D02*
X10800000Y-6850000D01*
X10800000Y-6850000D02*
X10800000Y-6100000D01*
X10850000Y-13500000D02*
X10850000Y-12750000D01*
X10800000Y-6100000D02*
X18500000Y-6100000D01*
X18500000Y-13500000D02*
X10850000Y-13500000D01*
X10300000Y-12750000D02*
X10300000Y-6850000D01*
D11*
D12*
X15240000Y-11790000D02*
X15260000Y-11810000D01*
X15260000Y-11790000D02*
X15240000Y-11810000D01*
X15240000Y-12240000D02*
X15260000Y-12260000D01*
X15260000Y-12240000D02*
X15240000Y-12260000D01*
X15490000Y-11490000D02*
X15510000Y-11510000D01*
X15510000Y-11490000D02*
X15490000Y-11510000D01*
X15890000Y-12510000D02*
X15910000Y-12530000D01*
X15910000Y-12510000D02*
X15890000Y-12530000D01*
X15990000Y-11490000D02*
X16010000Y-11510000D01*
X16010000Y-11490000D02*
X15990000Y-11510000D01*
X16490000Y-11490000D02*
X16510000Y-11510000D01*
X16510000Y-11490000D02*
X16490000Y-11510000D01*
X16690000Y-12590000D02*
X16710000Y-12610000D01*
X16710000Y-12590000D02*
X16690000Y-12610000D01*
X16740000Y-13240000D02*
X16760000Y-13260000D01*
X16760000Y-13240000D02*
X16740000Y-13260000D01*
X17240000Y-12740000D02*
X17260000Y-12760000D01*
X17260000Y-12740000D02*
X17240000Y-12760000D01*
X17490000Y-11490000D02*
X17510000Y-11510000D01*
X17510000Y-11490000D02*
X17490000Y-11510000D01*
X17740000Y-11740000D02*
X17760000Y-11760000D01*
X17760000Y-11740000D02*
X17740000Y-11760000D01*
X17740000Y-12740000D02*
X17760000Y-12760000D01*
X17760000Y-12740000D02*
X17740000Y-12760000D01*
X17740000Y-13240000D02*
X17760000Y-13260000D01*
X17760000Y-13240000D02*
X17740000Y-13260000D01*
X17990000Y-12490000D02*
X18010000Y-12510000D01*
X18010000Y-12490000D02*
X17990000Y-12510000D01*
D13*
X15100000Y-6520000D02*
G75*
G03*
X15100000Y-6520000I-20000J0D01*
G01*
X15100000Y-6940000D02*
G75*
G03*
X15100000Y-6940000I-20000J0D01*
G01*
X15100000Y-7340000D02*
G75*
G03*
X15100000Y-7340000I-20000J0D01*
G01*
X15100000Y-7740000D02*
G75*
G03*
X15100000Y-7740000I-20000J0D01*
G01*
X15100000Y-8120000D02*
G75*
G03*
X15100000Y-8120000I-20000J0D01*
G01*
X15100000Y-8540000D02*
G75*
G03*
X15100000Y-8540000I-20000J0D01*
G01*
X15100000Y-8940000D02*
G75*
G03*
X15100000Y-8940000I-20000J0D01*
G01*
X15100000Y-9320000D02*
G75*
G03*
X15100000Y-9320000I-20000J0D01*
G01*
X15100000Y-9700000D02*
G75*
G03*
X15100000Y-9700000I-20000J0D01*
G01*
X15100000Y-11320000D02*
G75*
G03*
X15100000Y-11320000I-20000J0D01*
G01*
X15120000Y-10060000D02*
G75*
G03*
X15120000Y-10060000I-20000J0D01*
G01*
X15120000Y-10480000D02*
G75*
G03*
X15120000Y-10480000I-20000J0D01*
G01*
X15120000Y-10860000D02*
G75*
G03*
X15120000Y-10860000I-20000J0D01*
G01*
X15140000Y-10660000D02*
G75*
G03*
X15140000Y-10660000I-20000J0D01*
G01*
X16020000Y-6660000D02*
G75*
G03*
X16020000Y-6660000I-20000J0D01*
G01*
X16020000Y-7060000D02*
G75*
G03*
X16020000Y-7060000I-20000J0D01*
G01*
X16020000Y-7460000D02*
G75*
G03*
X16020000Y-7460000I-20000J0D01*
G01*
X16020000Y-7820000D02*
G75*
G03*
X16020000Y-7820000I-20000J0D01*
G01*
X16020000Y-8240000D02*
G75*
G03*
X16020000Y-8240000I-20000J0D01*
G01*
X16020000Y-8640000D02*
G75*
G03*
X16020000Y-8640000I-20000J0D01*
G01*
X16020000Y-9040000D02*
G75*
G03*
X16020000Y-9040000I-20000J0D01*
G01*
X16020000Y-9440000D02*
G75*
G03*
X16020000Y-9440000I-20000J0D01*
G01*
X16020000Y-9840000D02*
G75*
G03*
X16020000Y-9840000I-20000J0D01*
G01*
X16020000Y-10240000D02*
G75*
G03*
X16020000Y-10240000I-20000J0D01*
G01*
X16020000Y-10640000D02*
G75*
G03*
X16020000Y-10640000I-20000J0D01*
G01*
X16020000Y-11040000D02*
G75*
G03*
X16020000Y-11040000I-20000J0D01*
G01*
X16070000Y-11400000D02*
G75*
G03*
X16070000Y-11400000I-20000J0D01*
G01*
X16200000Y-12240000D02*
G75*
G03*
X16200000Y-12240000I-20000J0D01*
G01*
X16300000Y-12760000D02*
G75*
G03*
X16300000Y-12760000I-20000J0D01*
G01*
X16840000Y-12840000D02*
G75*
G03*
X16840000Y-12840000I-20000J0D01*
G01*
X17020000Y-11460000D02*
G75*
G03*
X17020000Y-11460000I-20000J0D01*
G01*
D14*
X18230000Y-9072000D02*
X18230000Y-9132000D01*
X18200000Y-9102000D02*
X18260000Y-9102000D01*
X18230000Y-9199000D02*
X18230000Y-9259000D01*
X18200000Y-9229000D02*
X18260000Y-9229000D01*
X18230000Y-9326000D02*
X18230000Y-9386000D01*
X18200000Y-9356000D02*
X18260000Y-9356000D01*
X18230000Y-9453000D02*
X18230000Y-9513000D01*
X18200000Y-9483000D02*
X18260000Y-9483000D01*
X18230000Y-9580000D02*
X18230000Y-9640000D01*
X18200000Y-9610000D02*
X18260000Y-9610000D01*
X18230000Y-9707000D02*
X18230000Y-9767000D01*
X18200000Y-9737000D02*
X18260000Y-9737000D01*
X18230000Y-9834000D02*
X18230000Y-9894000D01*
X18200000Y-9864000D02*
X18260000Y-9864000D01*
X18230000Y-9961000D02*
X18230000Y-10021000D01*
X18200000Y-9991000D02*
X18260000Y-9991000D01*
X18230000Y-10088000D02*
X18230000Y-10148000D01*
X18200000Y-10118000D02*
X18260000Y-10118000D01*
X18230000Y-10215000D02*
X18230000Y-10275000D01*
X18200000Y-10245000D02*
X18260000Y-10245000D01*
X18230000Y-10342000D02*
X18230000Y-10402000D01*
X18200000Y-10372000D02*
X18260000Y-10372000D01*
X18230000Y-10469000D02*
X18230000Y-10529000D01*
X18200000Y-10499000D02*
X18260000Y-10499000D01*
X18230000Y-10596000D02*
X18230000Y-10656000D01*
X18200000Y-10626000D02*
X18260000Y-10626000D01*
X18230000Y-10723000D02*
X18230000Y-10783000D01*
X18200000Y-10753000D02*
X18260000Y-10753000D01*
X18230000Y-10850000D02*
X18230000Y-10910000D01*
X18200000Y-10880000D02*
X18260000Y-10880000D01*
X18230000Y-10977000D02*
X18230000Y-11037000D01*
X18200000Y-11007000D02*
X18260000Y-11007000D01*
X18230000Y-11104000D02*
X18230000Y-11164000D01*
X18200000Y-11134000D02*
X18260000Y-11134000D01*
X18230000Y-11231000D02*
X18230000Y-11291000D01*
X18200000Y-11261000D02*
X18260000Y-11261000D01*
X18230000Y-11358000D02*
X18230000Y-11418000D01*
X18200000Y-11388000D02*
X18260000Y-11388000D01*
X18230000Y-11485000D02*
X18230000Y-11545000D01*
X18200000Y-11515000D02*
X18260000Y-11515000D01*
X18230000Y-11612000D02*
X18230000Y-11672000D01*
X18200000Y-11642000D02*
X18260000Y-11642000D01*
X18230000Y-11739000D02*
X18230000Y-11799000D01*
X18200000Y-11769000D02*
X18260000Y-11769000D01*
X18230000Y-11866000D02*
X18230000Y-11926000D01*
X18200000Y-11896000D02*
X18260000Y-11896000D01*
X18230000Y-11993000D02*
X18230000Y-12053000D01*
X18200000Y-12023000D02*
X18260000Y-12023000D01*
X18230000Y-12120000D02*
X18230000Y-12180000D01*
X18200000Y-12150000D02*
X18260000Y-12150000D01*
D15*
X10745356Y-9550356D02*
X10745356Y-9479644D01*
X10674644Y-9479644D01*
X10674644Y-9550356D01*
X10745356Y-9550356D01*
X10745356Y-9804356D02*
X10745356Y-9733644D01*
X10674644Y-9733644D01*
X10674644Y-9804356D01*
X10745356Y-9804356D01*
X10745356Y-10058356D02*
X10745356Y-9987644D01*
X10674644Y-9987644D01*
X10674644Y-10058356D01*
X10745356Y-10058356D01*
X10745356Y-10312356D02*
X10745356Y-10241644D01*
X10674644Y-10241644D01*
X10674644Y-10312356D01*
X10745356Y-10312356D01*
X10745356Y-10566356D02*
X10745356Y-10495644D01*
X10674644Y-10495644D01*
X10674644Y-10566356D01*
X10745356Y-10566356D01*
X10745356Y-10820356D02*
X10745356Y-10749644D01*
X10674644Y-10749644D01*
X10674644Y-10820356D01*
X10745356Y-10820356D01*
X11485356Y-11931356D02*
X11485356Y-11860644D01*
X11414644Y-11860644D01*
X11414644Y-11931356D01*
X11485356Y-11931356D01*
X11485356Y-12185356D02*
X11485356Y-12114644D01*
X11414644Y-12114644D01*
X11414644Y-12185356D01*
X11485356Y-12185356D01*
X11485356Y-12439356D02*
X11485356Y-12368644D01*
X11414644Y-12368644D01*
X11414644Y-12439356D01*
X11485356Y-12439356D01*
X11485356Y-12693356D02*
X11485356Y-12622644D01*
X11414644Y-12622644D01*
X11414644Y-12693356D01*
X11485356Y-12693356D01*
X12609606Y-12715356D02*
X12609606Y-12644644D01*
X12538894Y-12644644D01*
X12538894Y-12715356D01*
X12609606Y-12715356D01*
D11*
X12624250Y-12780000D02*
X12624250Y-12580000D01*
X12524250Y-12780000D02*
X12524250Y-12580000D01*
X12624250Y-12580000D02*
G75*
G03*
X12524250Y-12580000I-50000J0D01*
G01*
X12524250Y-12780000D02*
G75*
G03*
X12624250Y-12780000I50000J0D01*
G01*
D15*
X13079606Y-12415356D02*
X13079606Y-12344644D01*
X13008894Y-12344644D01*
X13008894Y-12415356D01*
X13079606Y-12415356D01*
D11*
X12944250Y-12430000D02*
X13144250Y-12430000D01*
X12944250Y-12330000D02*
X13144250Y-12330000D01*
X13144250Y-12430000D02*
G75*
G03*
X13144250Y-12330000I0J50000D01*
G01*
X12944250Y-12330000D02*
G75*
G03*
X12944250Y-12430000I0J-50000D01*
G01*
D15*
X13079606Y-13015356D02*
X13079606Y-12944644D01*
X13008894Y-12944644D01*
X13008894Y-13015356D01*
X13079606Y-13015356D01*
D11*
X12944250Y-13030000D02*
X13144250Y-13030000D01*
X12944250Y-12930000D02*
X13144250Y-12930000D01*
X13144250Y-13030000D02*
G75*
G03*
X13144250Y-12930000I0J50000D01*
G01*
X12944250Y-12930000D02*
G75*
G03*
X12944250Y-13030000I0J-50000D01*
G01*
D15*
X14347356Y-11715356D02*
X14347356Y-11644644D01*
X14276644Y-11644644D01*
X14276644Y-11715356D01*
X14347356Y-11715356D01*
X14601356Y-11715356D02*
X14601356Y-11644644D01*
X14530644Y-11644644D01*
X14530644Y-11715356D01*
X14601356Y-11715356D01*
X14610356Y-10277356D02*
X14610356Y-10206644D01*
X14539644Y-10206644D01*
X14539644Y-10277356D01*
X14610356Y-10277356D01*
X14610356Y-10531356D02*
X14610356Y-10460644D01*
X14539644Y-10460644D01*
X14539644Y-10531356D01*
X14610356Y-10531356D01*
X14610356Y-10785356D02*
X14610356Y-10714644D01*
X14539644Y-10714644D01*
X14539644Y-10785356D01*
X14610356Y-10785356D01*
X14610356Y-11039356D02*
X14610356Y-10968644D01*
X14539644Y-10968644D01*
X14539644Y-11039356D01*
X14610356Y-11039356D01*
X14855356Y-11715356D02*
X14855356Y-11644644D01*
X14784644Y-11644644D01*
X14784644Y-11715356D01*
X14855356Y-11715356D01*
X15341356Y-13275356D02*
X15341356Y-13204644D01*
X15270644Y-13204644D01*
X15270644Y-13275356D01*
X15341356Y-13275356D01*
X15595356Y-13275356D02*
X15595356Y-13204644D01*
X15524644Y-13204644D01*
X15524644Y-13275356D01*
X15595356Y-13275356D01*
X16181356Y-13275356D02*
X16181356Y-13204644D01*
X16110644Y-13204644D01*
X16110644Y-13275356D01*
X16181356Y-13275356D01*
X16435356Y-13275356D02*
X16435356Y-13204644D01*
X16364644Y-13204644D01*
X16364644Y-13275356D01*
X16435356Y-13275356D01*
D16*
X12036000Y-6313000D02*
X12087000Y-6262000D01*
X12036000Y-6211000D01*
X11985000Y-6262000D01*
X12036000Y-6313000D01*
X12036000Y-6567000D02*
X12087000Y-6516000D01*
X12036000Y-6465000D01*
X11985000Y-6516000D01*
X12036000Y-6567000D01*
X12036000Y-6821000D02*
X12087000Y-6770000D01*
X12036000Y-6719000D01*
X11985000Y-6770000D01*
X12036000Y-6821000D01*
X12036000Y-7075000D02*
X12087000Y-7024000D01*
X12036000Y-6973000D01*
X11985000Y-7024000D01*
X12036000Y-7075000D01*
X12036000Y-7329000D02*
X12087000Y-7278000D01*
X12036000Y-7227000D01*
X11985000Y-7278000D01*
X12036000Y-7329000D01*
X12036000Y-7583000D02*
X12087000Y-7532000D01*
X12036000Y-7481000D01*
X11985000Y-7532000D01*
X12036000Y-7583000D01*
X12036000Y-7837000D02*
X12087000Y-7786000D01*
X12036000Y-7735000D01*
X11985000Y-7786000D01*
X12036000Y-7837000D01*
X12036000Y-8091000D02*
X12087000Y-8040000D01*
X12036000Y-7989000D01*
X11985000Y-8040000D01*
X12036000Y-8091000D01*
X12036000Y-8345000D02*
X12087000Y-8294000D01*
X12036000Y-8243000D01*
X11985000Y-8294000D01*
X12036000Y-8345000D01*
X12036000Y-8599000D02*
X12087000Y-8548000D01*
X12036000Y-8497000D01*
X11985000Y-8548000D01*
X12036000Y-8599000D01*
X12036000Y-8853000D02*
X12087000Y-8802000D01*
X12036000Y-8751000D01*
X11985000Y-8802000D01*
X12036000Y-8853000D01*
X12036000Y-9107000D02*
X12087000Y-9056000D01*
X12036000Y-9005000D01*
X11985000Y-9056000D01*
X12036000Y-9107000D01*
X12036000Y-9361000D02*
X12087000Y-9310000D01*
X12036000Y-9259000D01*
X11985000Y-9310000D01*
X12036000Y-9361000D01*
X12036000Y-9615000D02*
X12087000Y-9564000D01*
X12036000Y-9513000D01*
X11985000Y-9564000D01*
X12036000Y-9615000D01*
X12036000Y-9869000D02*
X12087000Y-9818000D01*
X12036000Y-9767000D01*
X11985000Y-9818000D01*
X12036000Y-9869000D01*
X12036000Y-10123000D02*
X12087000Y-10072000D01*
X12036000Y-10021000D01*
X11985000Y-10072000D01*
X12036000Y-10123000D01*
X12036000Y-10377000D02*
X12087000Y-10326000D01*
X12036000Y-10275000D01*
X11985000Y-10326000D01*
X12036000Y-10377000D01*
X12036000Y-10631000D02*
X12087000Y-10580000D01*
X12036000Y-10529000D01*
X11985000Y-10580000D01*
X12036000Y-10631000D01*
X12036000Y-10885000D02*
X12087000Y-10834000D01*
X12036000Y-10783000D01*
X11985000Y-10834000D01*
X12036000Y-10885000D01*
X12036000Y-11139000D02*
X12087000Y-11088000D01*
X12036000Y-11037000D01*
X11985000Y-11088000D01*
X12036000Y-11139000D01*
X12671000Y-11116000D02*
X12722000Y-11065000D01*
X12671000Y-11014000D01*
X12620000Y-11065000D01*
X12671000Y-11116000D01*
X12925000Y-11116000D02*
X12976000Y-11065000D01*
X12925000Y-11014000D01*
X12874000Y-11065000D01*
X12925000Y-11116000D01*
X13179000Y-11116000D02*
X13230000Y-11065000D01*
X13179000Y-11014000D01*
X13128000Y-11065000D01*
X13179000Y-11116000D01*
X13814000Y-6313000D02*
X13865000Y-6262000D01*
X13814000Y-6211000D01*
X13763000Y-6262000D01*
X13814000Y-6313000D01*
X13814000Y-6567000D02*
X13865000Y-6516000D01*
X13814000Y-6465000D01*
X13763000Y-6516000D01*
X13814000Y-6567000D01*
X13814000Y-6821000D02*
X13865000Y-6770000D01*
X13814000Y-6719000D01*
X13763000Y-6770000D01*
X13814000Y-6821000D01*
X13814000Y-7075000D02*
X13865000Y-7024000D01*
X13814000Y-6973000D01*
X13763000Y-7024000D01*
X13814000Y-7075000D01*
X13814000Y-7329000D02*
X13865000Y-7278000D01*
X13814000Y-7227000D01*
X13763000Y-7278000D01*
X13814000Y-7329000D01*
X13814000Y-7583000D02*
X13865000Y-7532000D01*
X13814000Y-7481000D01*
X13763000Y-7532000D01*
X13814000Y-7583000D01*
X13814000Y-7837000D02*
X13865000Y-7786000D01*
X13814000Y-7735000D01*
X13763000Y-7786000D01*
X13814000Y-7837000D01*
X13814000Y-8091000D02*
X13865000Y-8040000D01*
X13814000Y-7989000D01*
X13763000Y-8040000D01*
X13814000Y-8091000D01*
X13814000Y-8345000D02*
X13865000Y-8294000D01*
X13814000Y-8243000D01*
X13763000Y-8294000D01*
X13814000Y-8345000D01*
X13814000Y-8599000D02*
X13865000Y-8548000D01*
X13814000Y-8497000D01*
X13763000Y-8548000D01*
X13814000Y-8599000D01*
X13814000Y-8853000D02*
X13865000Y-8802000D01*
X13814000Y-8751000D01*
X13763000Y-8802000D01*
X13814000Y-8853000D01*
X13814000Y-9107000D02*
X13865000Y-9056000D01*
X13814000Y-9005000D01*
X13763000Y-9056000D01*
X13814000Y-9107000D01*
X13814000Y-9361000D02*
X13865000Y-9310000D01*
X13814000Y-9259000D01*
X13763000Y-9310000D01*
X13814000Y-9361000D01*
X13814000Y-9615000D02*
X13865000Y-9564000D01*
X13814000Y-9513000D01*
X13763000Y-9564000D01*
X13814000Y-9615000D01*
X13814000Y-9869000D02*
X13865000Y-9818000D01*
X13814000Y-9767000D01*
X13763000Y-9818000D01*
X13814000Y-9869000D01*
X13814000Y-10123000D02*
X13865000Y-10072000D01*
X13814000Y-10021000D01*
X13763000Y-10072000D01*
X13814000Y-10123000D01*
X13814000Y-10377000D02*
X13865000Y-10326000D01*
X13814000Y-10275000D01*
X13763000Y-10326000D01*
X13814000Y-10377000D01*
X13814000Y-10631000D02*
X13865000Y-10580000D01*
X13814000Y-10529000D01*
X13763000Y-10580000D01*
X13814000Y-10631000D01*
X13814000Y-10885000D02*
X13865000Y-10834000D01*
X13814000Y-10783000D01*
X13763000Y-10834000D01*
X13814000Y-10885000D01*
X13814000Y-11139000D02*
X13865000Y-11088000D01*
X13814000Y-11037000D01*
X13763000Y-11088000D01*
X13814000Y-11139000D01*
D17*
X10470000Y-8420000D02*
X10580000Y-8530000D01*
X10580000Y-8420000D02*
X10470000Y-8530000D01*
X10580000Y-8475000D02*
G75*
G03*
X10580000Y-8475000I-55000J0D01*
G01*
X10470000Y-8870000D02*
X10580000Y-8980000D01*
X10580000Y-8870000D02*
X10470000Y-8980000D01*
X10580000Y-8925000D02*
G75*
G03*
X10580000Y-8925000I-55000J0D01*
G01*
X11120000Y-8420000D02*
X11230000Y-8530000D01*
X11230000Y-8420000D02*
X11120000Y-8530000D01*
X11230000Y-8475000D02*
G75*
G03*
X11230000Y-8475000I-55000J0D01*
G01*
X11120000Y-8870000D02*
X11230000Y-8980000D01*
X11230000Y-8870000D02*
X11120000Y-8980000D01*
X11230000Y-8925000D02*
G75*
G03*
X11230000Y-8925000I-55000J0D01*
G01*
D18*
X16310000Y-6610000D02*
X16440000Y-6740000D01*
X16440000Y-6610000D02*
X16310000Y-6740000D01*
X16375000Y-6610000D02*
X16375000Y-6740000D01*
X16310000Y-6675000D02*
X16440000Y-6675000D01*
X17310000Y-6360000D02*
X17440000Y-6490000D01*
X17440000Y-6360000D02*
X17310000Y-6490000D01*
X17375000Y-6360000D02*
X17375000Y-6490000D01*
X17310000Y-6425000D02*
X17440000Y-6425000D01*
X17310000Y-6860000D02*
X17440000Y-6990000D01*
X17440000Y-6860000D02*
X17310000Y-6990000D01*
X17375000Y-6860000D02*
X17375000Y-6990000D01*
X17310000Y-6925000D02*
X17440000Y-6925000D01*
D11*
X10550119Y-13817976D02*
X10550119Y-13617976D01*
X10597738Y-13617976D01*
X10626310Y-13627500D01*
X10645357Y-13646548D01*
X10654881Y-13665595D01*
X10664405Y-13703690D01*
X10664405Y-13732262D01*
X10654881Y-13770357D01*
X10645357Y-13789405D01*
X10626310Y-13808452D01*
X10597738Y-13817976D01*
X10550119Y-13817976D01*
X10750119Y-13817976D02*
X10750119Y-13684643D01*
X10750119Y-13722738D02*
X10759643Y-13703690D01*
X10769167Y-13694167D01*
X10788214Y-13684643D01*
X10807262Y-13684643D01*
X10873929Y-13817976D02*
X10873929Y-13684643D01*
X10873929Y-13617976D02*
X10864405Y-13627500D01*
X10873929Y-13637024D01*
X10883452Y-13627500D01*
X10873929Y-13617976D01*
X10873929Y-13637024D01*
X10997738Y-13817976D02*
X10978690Y-13808452D01*
X10969167Y-13789405D01*
X10969167Y-13617976D01*
X11102500Y-13817976D02*
X11083452Y-13808452D01*
X11073929Y-13789405D01*
X11073929Y-13617976D01*
X11331071Y-13817976D02*
X11331071Y-13617976D01*
X11397738Y-13760833D01*
X11464405Y-13617976D01*
X11464405Y-13817976D01*
X11645357Y-13817976D02*
X11645357Y-13713214D01*
X11635833Y-13694167D01*
X11616786Y-13684643D01*
X11578690Y-13684643D01*
X11559643Y-13694167D01*
X11645357Y-13808452D02*
X11626309Y-13817976D01*
X11578690Y-13817976D01*
X11559643Y-13808452D01*
X11550119Y-13789405D01*
X11550119Y-13770357D01*
X11559643Y-13751309D01*
X11578690Y-13741786D01*
X11626309Y-13741786D01*
X11645357Y-13732262D01*
X11740595Y-13684643D02*
X11740595Y-13884643D01*
X11740595Y-13694167D02*
X11759643Y-13684643D01*
X11797738Y-13684643D01*
X11816786Y-13694167D01*
X11826309Y-13703690D01*
X11835833Y-13722738D01*
X11835833Y-13779881D01*
X11826309Y-13798928D01*
X11816786Y-13808452D01*
X11797738Y-13817976D01*
X11759643Y-13817976D01*
X11740595Y-13808452D01*
X11921548Y-13798928D02*
X11931071Y-13808452D01*
X11921548Y-13817976D01*
X11912024Y-13808452D01*
X11921548Y-13798928D01*
X11921548Y-13817976D01*
X11921548Y-13694167D02*
X11931071Y-13703690D01*
X11921548Y-13713214D01*
X11912024Y-13703690D01*
X11921548Y-13694167D01*
X11921548Y-13713214D01*
D12*
X10272500Y-14137500D02*
X10292500Y-14157500D01*
X10292500Y-14137500D02*
X10272500Y-14157500D01*
D11*
X10588214Y-14037976D02*
X10607262Y-14037976D01*
X10626310Y-14047500D01*
X10635833Y-14057024D01*
X10645357Y-14076071D01*
X10654881Y-14114167D01*
X10654881Y-14161786D01*
X10645357Y-14199881D01*
X10635833Y-14218928D01*
X10626310Y-14228452D01*
X10607262Y-14237976D01*
X10588214Y-14237976D01*
X10569167Y-14228452D01*
X10559643Y-14218928D01*
X10550119Y-14199881D01*
X10540595Y-14161786D01*
X10540595Y-14114167D01*
X10550119Y-14076071D01*
X10559643Y-14057024D01*
X10569167Y-14047500D01*
X10588214Y-14037976D01*
X10740595Y-14218928D02*
X10750119Y-14228452D01*
X10740595Y-14237976D01*
X10731071Y-14228452D01*
X10740595Y-14218928D01*
X10740595Y-14237976D01*
X10826310Y-14057024D02*
X10835833Y-14047500D01*
X10854881Y-14037976D01*
X10902500Y-14037976D01*
X10921548Y-14047500D01*
X10931071Y-14057024D01*
X10940595Y-14076071D01*
X10940595Y-14095119D01*
X10931071Y-14123690D01*
X10816786Y-14237976D01*
X10940595Y-14237976D01*
X11064405Y-14037976D02*
X11083452Y-14037976D01*
X11102500Y-14047500D01*
X11112024Y-14057024D01*
X11121548Y-14076071D01*
X11131071Y-14114167D01*
X11131071Y-14161786D01*
X11121548Y-14199881D01*
X11112024Y-14218928D01*
X11102500Y-14228452D01*
X11083452Y-14237976D01*
X11064405Y-14237976D01*
X11045357Y-14228452D01*
X11035833Y-14218928D01*
X11026310Y-14199881D01*
X11016786Y-14161786D01*
X11016786Y-14114167D01*
X11026310Y-14076071D01*
X11035833Y-14057024D01*
X11045357Y-14047500D01*
X11064405Y-14037976D01*
X11254881Y-14037976D02*
X11273928Y-14037976D01*
X11292976Y-14047500D01*
X11302500Y-14057024D01*
X11312024Y-14076071D01*
X11321548Y-14114167D01*
X11321548Y-14161786D01*
X11312024Y-14199881D01*
X11302500Y-14218928D01*
X11292976Y-14228452D01*
X11273928Y-14237976D01*
X11254881Y-14237976D01*
X11235833Y-14228452D01*
X11226309Y-14218928D01*
X11216786Y-14199881D01*
X11207262Y-14161786D01*
X11207262Y-14114167D01*
X11216786Y-14076071D01*
X11226309Y-14057024D01*
X11235833Y-14047500D01*
X11254881Y-14037976D01*
X11407262Y-14237976D02*
X11407262Y-14104643D01*
X11407262Y-14123690D02*
X11416786Y-14114167D01*
X11435833Y-14104643D01*
X11464405Y-14104643D01*
X11483452Y-14114167D01*
X11492976Y-14133214D01*
X11492976Y-14237976D01*
X11492976Y-14133214D02*
X11502500Y-14114167D01*
X11521548Y-14104643D01*
X11550119Y-14104643D01*
X11569167Y-14114167D01*
X11578690Y-14133214D01*
X11578690Y-14237976D01*
X11673928Y-14237976D02*
X11673928Y-14104643D01*
X11673928Y-14123690D02*
X11683452Y-14114167D01*
X11702500Y-14104643D01*
X11731071Y-14104643D01*
X11750119Y-14114167D01*
X11759643Y-14133214D01*
X11759643Y-14237976D01*
X11759643Y-14133214D02*
X11769167Y-14114167D01*
X11788214Y-14104643D01*
X11816786Y-14104643D01*
X11835833Y-14114167D01*
X11845357Y-14133214D01*
X11845357Y-14237976D01*
X12235833Y-14028452D02*
X12064405Y-14285595D01*
X12492976Y-14037976D02*
X12512024Y-14037976D01*
X12531071Y-14047500D01*
X12540595Y-14057024D01*
X12550119Y-14076071D01*
X12559643Y-14114167D01*
X12559643Y-14161786D01*
X12550119Y-14199881D01*
X12540595Y-14218928D01*
X12531071Y-14228452D01*
X12512024Y-14237976D01*
X12492976Y-14237976D01*
X12473928Y-14228452D01*
X12464405Y-14218928D01*
X12454881Y-14199881D01*
X12445357Y-14161786D01*
X12445357Y-14114167D01*
X12454881Y-14076071D01*
X12464405Y-14057024D01*
X12473928Y-14047500D01*
X12492976Y-14037976D01*
X12645357Y-14218928D02*
X12654881Y-14228452D01*
X12645357Y-14237976D01*
X12635833Y-14228452D01*
X12645357Y-14218928D01*
X12645357Y-14237976D01*
X12778690Y-14037976D02*
X12797738Y-14037976D01*
X12816786Y-14047500D01*
X12826309Y-14057024D01*
X12835833Y-14076071D01*
X12845357Y-14114167D01*
X12845357Y-14161786D01*
X12835833Y-14199881D01*
X12826309Y-14218928D01*
X12816786Y-14228452D01*
X12797738Y-14237976D01*
X12778690Y-14237976D01*
X12759643Y-14228452D01*
X12750119Y-14218928D01*
X12740595Y-14199881D01*
X12731071Y-14161786D01*
X12731071Y-14114167D01*
X12740595Y-14076071D01*
X12750119Y-14057024D01*
X12759643Y-14047500D01*
X12778690Y-14037976D01*
X12969167Y-14037976D02*
X12988214Y-14037976D01*
X13007262Y-14047500D01*
X13016786Y-14057024D01*
X13026309Y-14076071D01*
X13035833Y-14114167D01*
X13035833Y-14161786D01*
X13026309Y-14199881D01*
X13016786Y-14218928D01*
X13007262Y-14228452D01*
X12988214Y-14237976D01*
X12969167Y-14237976D01*
X12950119Y-14228452D01*
X12940595Y-14218928D01*
X12931071Y-14199881D01*
X12921548Y-14161786D01*
X12921548Y-14114167D01*
X12931071Y-14076071D01*
X12940595Y-14057024D01*
X12950119Y-14047500D01*
X12969167Y-14037976D01*
X13102500Y-14037976D02*
X13235833Y-14037976D01*
X13150119Y-14237976D01*
X13321548Y-14237976D02*
X13359643Y-14237976D01*
X13378690Y-14228452D01*
X13388214Y-14218928D01*
X13407262Y-14190357D01*
X13416786Y-14152262D01*
X13416786Y-14076071D01*
X13407262Y-14057024D01*
X13397738Y-14047500D01*
X13378690Y-14037976D01*
X13340595Y-14037976D01*
X13321548Y-14047500D01*
X13312024Y-14057024D01*
X13302500Y-14076071D01*
X13302500Y-14123690D01*
X13312024Y-14142738D01*
X13321548Y-14152262D01*
X13340595Y-14161786D01*
X13378690Y-14161786D01*
X13397738Y-14152262D01*
X13407262Y-14142738D01*
X13416786Y-14123690D01*
X13492976Y-14037976D02*
X13492976Y-14076071D01*
X13569167Y-14037976D02*
X13569167Y-14076071D01*
X13864405Y-14314167D02*
X13854881Y-14304643D01*
X13835833Y-14276071D01*
X13826309Y-14257024D01*
X13816786Y-14228452D01*
X13807262Y-14180833D01*
X13807262Y-14142738D01*
X13816786Y-14095119D01*
X13826309Y-14066548D01*
X13835833Y-14047500D01*
X13854881Y-14018928D01*
X13864405Y-14009405D01*
X14045357Y-14237976D02*
X13931071Y-14237976D01*
X13988214Y-14237976D02*
X13988214Y-14037976D01*
X13969167Y-14066548D01*
X13950119Y-14085595D01*
X13931071Y-14095119D01*
X14216786Y-14104643D02*
X14216786Y-14237976D01*
X14169167Y-14028452D02*
X14121548Y-14171309D01*
X14245357Y-14171309D01*
X14473928Y-14237976D02*
X14473928Y-14037976D01*
X14559643Y-14237976D02*
X14559643Y-14133214D01*
X14550119Y-14114167D01*
X14531071Y-14104643D01*
X14502500Y-14104643D01*
X14483452Y-14114167D01*
X14473928Y-14123690D01*
X14683452Y-14237976D02*
X14664405Y-14228452D01*
X14654881Y-14218928D01*
X14645357Y-14199881D01*
X14645357Y-14142738D01*
X14654881Y-14123690D01*
X14664405Y-14114167D01*
X14683452Y-14104643D01*
X14712024Y-14104643D01*
X14731071Y-14114167D01*
X14740595Y-14123690D01*
X14750119Y-14142738D01*
X14750119Y-14199881D01*
X14740595Y-14218928D01*
X14731071Y-14228452D01*
X14712024Y-14237976D01*
X14683452Y-14237976D01*
X14864405Y-14237976D02*
X14845357Y-14228452D01*
X14835833Y-14209405D01*
X14835833Y-14037976D01*
X15016786Y-14228452D02*
X14997738Y-14237976D01*
X14959643Y-14237976D01*
X14940595Y-14228452D01*
X14931071Y-14209405D01*
X14931071Y-14133214D01*
X14940595Y-14114167D01*
X14959643Y-14104643D01*
X14997738Y-14104643D01*
X15016786Y-14114167D01*
X15026309Y-14133214D01*
X15026309Y-14152262D01*
X14931071Y-14171309D01*
X15102500Y-14228452D02*
X15121548Y-14237976D01*
X15159643Y-14237976D01*
X15178690Y-14228452D01*
X15188214Y-14209405D01*
X15188214Y-14199881D01*
X15178690Y-14180833D01*
X15159643Y-14171309D01*
X15131071Y-14171309D01*
X15112024Y-14161786D01*
X15102500Y-14142738D01*
X15102500Y-14133214D01*
X15112024Y-14114167D01*
X15131071Y-14104643D01*
X15159643Y-14104643D01*
X15178690Y-14114167D01*
X15254881Y-14314167D02*
X15264405Y-14304643D01*
X15283452Y-14276071D01*
X15292976Y-14257024D01*
X15302500Y-14228452D01*
X15312024Y-14180833D01*
X15312024Y-14142738D01*
X15302500Y-14095119D01*
X15292976Y-14066548D01*
X15283452Y-14047500D01*
X15264405Y-14018928D01*
X15254881Y-14009405D01*
D13*
X10292500Y-14411500D02*
G75*
G03*
X10292500Y-14411500I-20000J0D01*
G01*
D11*
X10588214Y-14301976D02*
X10607262Y-14301976D01*
X10626310Y-14311500D01*
X10635833Y-14321024D01*
X10645357Y-14340071D01*
X10654881Y-14378167D01*
X10654881Y-14425786D01*
X10645357Y-14463881D01*
X10635833Y-14482928D01*
X10626310Y-14492452D01*
X10607262Y-14501976D01*
X10588214Y-14501976D01*
X10569167Y-14492452D01*
X10559643Y-14482928D01*
X10550119Y-14463881D01*
X10540595Y-14425786D01*
X10540595Y-14378167D01*
X10550119Y-14340071D01*
X10559643Y-14321024D01*
X10569167Y-14311500D01*
X10588214Y-14301976D01*
X10740595Y-14482928D02*
X10750119Y-14492452D01*
X10740595Y-14501976D01*
X10731071Y-14492452D01*
X10740595Y-14482928D01*
X10740595Y-14501976D01*
X10921548Y-14368643D02*
X10921548Y-14501976D01*
X10873929Y-14292452D02*
X10826310Y-14435309D01*
X10950119Y-14435309D01*
X11064405Y-14301976D02*
X11083452Y-14301976D01*
X11102500Y-14311500D01*
X11112024Y-14321024D01*
X11121548Y-14340071D01*
X11131071Y-14378167D01*
X11131071Y-14425786D01*
X11121548Y-14463881D01*
X11112024Y-14482928D01*
X11102500Y-14492452D01*
X11083452Y-14501976D01*
X11064405Y-14501976D01*
X11045357Y-14492452D01*
X11035833Y-14482928D01*
X11026310Y-14463881D01*
X11016786Y-14425786D01*
X11016786Y-14378167D01*
X11026310Y-14340071D01*
X11035833Y-14321024D01*
X11045357Y-14311500D01*
X11064405Y-14301976D01*
X11254881Y-14301976D02*
X11273928Y-14301976D01*
X11292976Y-14311500D01*
X11302500Y-14321024D01*
X11312024Y-14340071D01*
X11321548Y-14378167D01*
X11321548Y-14425786D01*
X11312024Y-14463881D01*
X11302500Y-14482928D01*
X11292976Y-14492452D01*
X11273928Y-14501976D01*
X11254881Y-14501976D01*
X11235833Y-14492452D01*
X11226309Y-14482928D01*
X11216786Y-14463881D01*
X11207262Y-14425786D01*
X11207262Y-14378167D01*
X11216786Y-14340071D01*
X11226309Y-14321024D01*
X11235833Y-14311500D01*
X11254881Y-14301976D01*
X11407262Y-14501976D02*
X11407262Y-14368643D01*
X11407262Y-14387690D02*
X11416786Y-14378167D01*
X11435833Y-14368643D01*
X11464405Y-14368643D01*
X11483452Y-14378167D01*
X11492976Y-14397214D01*
X11492976Y-14501976D01*
X11492976Y-14397214D02*
X11502500Y-14378167D01*
X11521548Y-14368643D01*
X11550119Y-14368643D01*
X11569167Y-14378167D01*
X11578690Y-14397214D01*
X11578690Y-14501976D01*
X11673928Y-14501976D02*
X11673928Y-14368643D01*
X11673928Y-14387690D02*
X11683452Y-14378167D01*
X11702500Y-14368643D01*
X11731071Y-14368643D01*
X11750119Y-14378167D01*
X11759643Y-14397214D01*
X11759643Y-14501976D01*
X11759643Y-14397214D02*
X11769167Y-14378167D01*
X11788214Y-14368643D01*
X11816786Y-14368643D01*
X11835833Y-14378167D01*
X11845357Y-14397214D01*
X11845357Y-14501976D01*
X12235833Y-14292452D02*
X12064405Y-14549595D01*
X12492976Y-14301976D02*
X12512024Y-14301976D01*
X12531071Y-14311500D01*
X12540595Y-14321024D01*
X12550119Y-14340071D01*
X12559643Y-14378167D01*
X12559643Y-14425786D01*
X12550119Y-14463881D01*
X12540595Y-14482928D01*
X12531071Y-14492452D01*
X12512024Y-14501976D01*
X12492976Y-14501976D01*
X12473928Y-14492452D01*
X12464405Y-14482928D01*
X12454881Y-14463881D01*
X12445357Y-14425786D01*
X12445357Y-14378167D01*
X12454881Y-14340071D01*
X12464405Y-14321024D01*
X12473928Y-14311500D01*
X12492976Y-14301976D01*
X12645357Y-14482928D02*
X12654881Y-14492452D01*
X12645357Y-14501976D01*
X12635833Y-14492452D01*
X12645357Y-14482928D01*
X12645357Y-14501976D01*
X12778690Y-14301976D02*
X12797738Y-14301976D01*
X12816786Y-14311500D01*
X12826309Y-14321024D01*
X12835833Y-14340071D01*
X12845357Y-14378167D01*
X12845357Y-14425786D01*
X12835833Y-14463881D01*
X12826309Y-14482928D01*
X12816786Y-14492452D01*
X12797738Y-14501976D01*
X12778690Y-14501976D01*
X12759643Y-14492452D01*
X12750119Y-14482928D01*
X12740595Y-14463881D01*
X12731071Y-14425786D01*
X12731071Y-14378167D01*
X12740595Y-14340071D01*
X12750119Y-14321024D01*
X12759643Y-14311500D01*
X12778690Y-14301976D01*
X13035833Y-14501976D02*
X12921548Y-14501976D01*
X12978690Y-14501976D02*
X12978690Y-14301976D01*
X12959643Y-14330548D01*
X12940595Y-14349595D01*
X12921548Y-14359119D01*
X13216786Y-14301976D02*
X13121548Y-14301976D01*
X13112024Y-14397214D01*
X13121548Y-14387690D01*
X13140595Y-14378167D01*
X13188214Y-14378167D01*
X13207262Y-14387690D01*
X13216786Y-14397214D01*
X13226309Y-14416262D01*
X13226309Y-14463881D01*
X13216786Y-14482928D01*
X13207262Y-14492452D01*
X13188214Y-14501976D01*
X13140595Y-14501976D01*
X13121548Y-14492452D01*
X13112024Y-14482928D01*
X13292976Y-14301976D02*
X13426309Y-14301976D01*
X13340595Y-14501976D01*
X13492976Y-14301976D02*
X13492976Y-14340071D01*
X13569167Y-14301976D02*
X13569167Y-14340071D01*
X13864405Y-14578167D02*
X13854881Y-14568643D01*
X13835833Y-14540071D01*
X13826309Y-14521024D01*
X13816786Y-14492452D01*
X13807262Y-14444833D01*
X13807262Y-14406738D01*
X13816786Y-14359119D01*
X13826309Y-14330548D01*
X13835833Y-14311500D01*
X13854881Y-14282928D01*
X13864405Y-14273405D01*
X13921548Y-14301976D02*
X14045357Y-14301976D01*
X13978690Y-14378167D01*
X14007262Y-14378167D01*
X14026309Y-14387690D01*
X14035833Y-14397214D01*
X14045357Y-14416262D01*
X14045357Y-14463881D01*
X14035833Y-14482928D01*
X14026309Y-14492452D01*
X14007262Y-14501976D01*
X13950119Y-14501976D01*
X13931071Y-14492452D01*
X13921548Y-14482928D01*
X14235833Y-14501976D02*
X14121548Y-14501976D01*
X14178690Y-14501976D02*
X14178690Y-14301976D01*
X14159643Y-14330548D01*
X14140595Y-14349595D01*
X14121548Y-14359119D01*
X14473928Y-14501976D02*
X14473928Y-14301976D01*
X14559643Y-14501976D02*
X14559643Y-14397214D01*
X14550119Y-14378167D01*
X14531071Y-14368643D01*
X14502500Y-14368643D01*
X14483452Y-14378167D01*
X14473928Y-14387690D01*
X14683452Y-14501976D02*
X14664405Y-14492452D01*
X14654881Y-14482928D01*
X14645357Y-14463881D01*
X14645357Y-14406738D01*
X14654881Y-14387690D01*
X14664405Y-14378167D01*
X14683452Y-14368643D01*
X14712024Y-14368643D01*
X14731071Y-14378167D01*
X14740595Y-14387690D01*
X14750119Y-14406738D01*
X14750119Y-14463881D01*
X14740595Y-14482928D01*
X14731071Y-14492452D01*
X14712024Y-14501976D01*
X14683452Y-14501976D01*
X14864405Y-14501976D02*
X14845357Y-14492452D01*
X14835833Y-14473405D01*
X14835833Y-14301976D01*
X15016786Y-14492452D02*
X14997738Y-14501976D01*
X14959643Y-14501976D01*
X14940595Y-14492452D01*
X14931071Y-14473405D01*
X14931071Y-14397214D01*
X14940595Y-14378167D01*
X14959643Y-14368643D01*
X14997738Y-14368643D01*
X15016786Y-14378167D01*
X15026309Y-14397214D01*
X15026309Y-14416262D01*
X14931071Y-14435309D01*
X15102500Y-14492452D02*
X15121548Y-14501976D01*
X15159643Y-14501976D01*
X15178690Y-14492452D01*
X15188214Y-14473405D01*
X15188214Y-14463881D01*
X15178690Y-14444833D01*
X15159643Y-14435309D01*
X15131071Y-14435309D01*
X15112024Y-14425786D01*
X15102500Y-14406738D01*
X15102500Y-14397214D01*
X15112024Y-14378167D01*
X15131071Y-14368643D01*
X15159643Y-14368643D01*
X15178690Y-14378167D01*
X15254881Y-14578167D02*
X15264405Y-14568643D01*
X15283452Y-14540071D01*
X15292976Y-14521024D01*
X15302500Y-14492452D01*
X15312024Y-14444833D01*
X15312024Y-14406738D01*
X15302500Y-14359119D01*
X15292976Y-14330548D01*
X15283452Y-14311500D01*
X15264405Y-14282928D01*
X15254881Y-14273405D01*
D14*
X10262500Y-14645500D02*
X10262500Y-14705500D01*
X10232500Y-14675500D02*
X10292500Y-14675500D01*
D11*
X10588214Y-14565976D02*
X10607262Y-14565976D01*
X10626310Y-14575500D01*
X10635833Y-14585024D01*
X10645357Y-14604071D01*
X10654881Y-14642167D01*
X10654881Y-14689786D01*
X10645357Y-14727881D01*
X10635833Y-14746928D01*
X10626310Y-14756452D01*
X10607262Y-14765976D01*
X10588214Y-14765976D01*
X10569167Y-14756452D01*
X10559643Y-14746928D01*
X10550119Y-14727881D01*
X10540595Y-14689786D01*
X10540595Y-14642167D01*
X10550119Y-14604071D01*
X10559643Y-14585024D01*
X10569167Y-14575500D01*
X10588214Y-14565976D01*
X10740595Y-14746928D02*
X10750119Y-14756452D01*
X10740595Y-14765976D01*
X10731071Y-14756452D01*
X10740595Y-14746928D01*
X10740595Y-14765976D01*
X10921548Y-14565976D02*
X10883452Y-14565976D01*
X10864405Y-14575500D01*
X10854881Y-14585024D01*
X10835833Y-14613595D01*
X10826310Y-14651690D01*
X10826310Y-14727881D01*
X10835833Y-14746928D01*
X10845357Y-14756452D01*
X10864405Y-14765976D01*
X10902500Y-14765976D01*
X10921548Y-14756452D01*
X10931071Y-14746928D01*
X10940595Y-14727881D01*
X10940595Y-14680262D01*
X10931071Y-14661214D01*
X10921548Y-14651690D01*
X10902500Y-14642167D01*
X10864405Y-14642167D01*
X10845357Y-14651690D01*
X10835833Y-14661214D01*
X10826310Y-14680262D01*
X11064405Y-14565976D02*
X11083452Y-14565976D01*
X11102500Y-14575500D01*
X11112024Y-14585024D01*
X11121548Y-14604071D01*
X11131071Y-14642167D01*
X11131071Y-14689786D01*
X11121548Y-14727881D01*
X11112024Y-14746928D01*
X11102500Y-14756452D01*
X11083452Y-14765976D01*
X11064405Y-14765976D01*
X11045357Y-14756452D01*
X11035833Y-14746928D01*
X11026310Y-14727881D01*
X11016786Y-14689786D01*
X11016786Y-14642167D01*
X11026310Y-14604071D01*
X11035833Y-14585024D01*
X11045357Y-14575500D01*
X11064405Y-14565976D01*
X11254881Y-14565976D02*
X11273928Y-14565976D01*
X11292976Y-14575500D01*
X11302500Y-14585024D01*
X11312024Y-14604071D01*
X11321548Y-14642167D01*
X11321548Y-14689786D01*
X11312024Y-14727881D01*
X11302500Y-14746928D01*
X11292976Y-14756452D01*
X11273928Y-14765976D01*
X11254881Y-14765976D01*
X11235833Y-14756452D01*
X11226309Y-14746928D01*
X11216786Y-14727881D01*
X11207262Y-14689786D01*
X11207262Y-14642167D01*
X11216786Y-14604071D01*
X11226309Y-14585024D01*
X11235833Y-14575500D01*
X11254881Y-14565976D01*
X11407262Y-14765976D02*
X11407262Y-14632643D01*
X11407262Y-14651690D02*
X11416786Y-14642167D01*
X11435833Y-14632643D01*
X11464405Y-14632643D01*
X11483452Y-14642167D01*
X11492976Y-14661214D01*
X11492976Y-14765976D01*
X11492976Y-14661214D02*
X11502500Y-14642167D01*
X11521548Y-14632643D01*
X11550119Y-14632643D01*
X11569167Y-14642167D01*
X11578690Y-14661214D01*
X11578690Y-14765976D01*
X11673928Y-14765976D02*
X11673928Y-14632643D01*
X11673928Y-14651690D02*
X11683452Y-14642167D01*
X11702500Y-14632643D01*
X11731071Y-14632643D01*
X11750119Y-14642167D01*
X11759643Y-14661214D01*
X11759643Y-14765976D01*
X11759643Y-14661214D02*
X11769167Y-14642167D01*
X11788214Y-14632643D01*
X11816786Y-14632643D01*
X11835833Y-14642167D01*
X11845357Y-14661214D01*
X11845357Y-14765976D01*
X12235833Y-14556452D02*
X12064405Y-14813595D01*
X12492976Y-14565976D02*
X12512024Y-14565976D01*
X12531071Y-14575500D01*
X12540595Y-14585024D01*
X12550119Y-14604071D01*
X12559643Y-14642167D01*
X12559643Y-14689786D01*
X12550119Y-14727881D01*
X12540595Y-14746928D01*
X12531071Y-14756452D01*
X12512024Y-14765976D01*
X12492976Y-14765976D01*
X12473928Y-14756452D01*
X12464405Y-14746928D01*
X12454881Y-14727881D01*
X12445357Y-14689786D01*
X12445357Y-14642167D01*
X12454881Y-14604071D01*
X12464405Y-14585024D01*
X12473928Y-14575500D01*
X12492976Y-14565976D01*
X12645357Y-14746928D02*
X12654881Y-14756452D01*
X12645357Y-14765976D01*
X12635833Y-14756452D01*
X12645357Y-14746928D01*
X12645357Y-14765976D01*
X12778690Y-14565976D02*
X12797738Y-14565976D01*
X12816786Y-14575500D01*
X12826309Y-14585024D01*
X12835833Y-14604071D01*
X12845357Y-14642167D01*
X12845357Y-14689786D01*
X12835833Y-14727881D01*
X12826309Y-14746928D01*
X12816786Y-14756452D01*
X12797738Y-14765976D01*
X12778690Y-14765976D01*
X12759643Y-14756452D01*
X12750119Y-14746928D01*
X12740595Y-14727881D01*
X12731071Y-14689786D01*
X12731071Y-14642167D01*
X12740595Y-14604071D01*
X12750119Y-14585024D01*
X12759643Y-14575500D01*
X12778690Y-14565976D01*
X12921548Y-14585024D02*
X12931071Y-14575500D01*
X12950119Y-14565976D01*
X12997738Y-14565976D01*
X13016786Y-14575500D01*
X13026309Y-14585024D01*
X13035833Y-14604071D01*
X13035833Y-14623119D01*
X13026309Y-14651690D01*
X12912024Y-14765976D01*
X13035833Y-14765976D01*
X13102500Y-14565976D02*
X13226309Y-14565976D01*
X13159643Y-14642167D01*
X13188214Y-14642167D01*
X13207262Y-14651690D01*
X13216786Y-14661214D01*
X13226309Y-14680262D01*
X13226309Y-14727881D01*
X13216786Y-14746928D01*
X13207262Y-14756452D01*
X13188214Y-14765976D01*
X13131071Y-14765976D01*
X13112024Y-14756452D01*
X13102500Y-14746928D01*
X13397738Y-14565976D02*
X13359643Y-14565976D01*
X13340595Y-14575500D01*
X13331071Y-14585024D01*
X13312024Y-14613595D01*
X13302500Y-14651690D01*
X13302500Y-14727881D01*
X13312024Y-14746928D01*
X13321548Y-14756452D01*
X13340595Y-14765976D01*
X13378690Y-14765976D01*
X13397738Y-14756452D01*
X13407262Y-14746928D01*
X13416786Y-14727881D01*
X13416786Y-14680262D01*
X13407262Y-14661214D01*
X13397738Y-14651690D01*
X13378690Y-14642167D01*
X13340595Y-14642167D01*
X13321548Y-14651690D01*
X13312024Y-14661214D01*
X13302500Y-14680262D01*
X13492976Y-14565976D02*
X13492976Y-14604071D01*
X13569167Y-14565976D02*
X13569167Y-14604071D01*
X13864405Y-14842167D02*
X13854881Y-14832643D01*
X13835833Y-14804071D01*
X13826309Y-14785024D01*
X13816786Y-14756452D01*
X13807262Y-14708833D01*
X13807262Y-14670738D01*
X13816786Y-14623119D01*
X13826309Y-14594548D01*
X13835833Y-14575500D01*
X13854881Y-14546928D01*
X13864405Y-14537405D01*
X13931071Y-14585024D02*
X13940595Y-14575500D01*
X13959643Y-14565976D01*
X14007262Y-14565976D01*
X14026309Y-14575500D01*
X14035833Y-14585024D01*
X14045357Y-14604071D01*
X14045357Y-14623119D01*
X14035833Y-14651690D01*
X13921548Y-14765976D01*
X14045357Y-14765976D01*
X14226309Y-14565976D02*
X14131071Y-14565976D01*
X14121548Y-14661214D01*
X14131071Y-14651690D01*
X14150119Y-14642167D01*
X14197738Y-14642167D01*
X14216786Y-14651690D01*
X14226309Y-14661214D01*
X14235833Y-14680262D01*
X14235833Y-14727881D01*
X14226309Y-14746928D01*
X14216786Y-14756452D01*
X14197738Y-14765976D01*
X14150119Y-14765976D01*
X14131071Y-14756452D01*
X14121548Y-14746928D01*
X14473928Y-14765976D02*
X14473928Y-14565976D01*
X14559643Y-14765976D02*
X14559643Y-14661214D01*
X14550119Y-14642167D01*
X14531071Y-14632643D01*
X14502500Y-14632643D01*
X14483452Y-14642167D01*
X14473928Y-14651690D01*
X14683452Y-14765976D02*
X14664405Y-14756452D01*
X14654881Y-14746928D01*
X14645357Y-14727881D01*
X14645357Y-14670738D01*
X14654881Y-14651690D01*
X14664405Y-14642167D01*
X14683452Y-14632643D01*
X14712024Y-14632643D01*
X14731071Y-14642167D01*
X14740595Y-14651690D01*
X14750119Y-14670738D01*
X14750119Y-14727881D01*
X14740595Y-14746928D01*
X14731071Y-14756452D01*
X14712024Y-14765976D01*
X14683452Y-14765976D01*
X14864405Y-14765976D02*
X14845357Y-14756452D01*
X14835833Y-14737405D01*
X14835833Y-14565976D01*
X15016786Y-14756452D02*
X14997738Y-14765976D01*
X14959643Y-14765976D01*
X14940595Y-14756452D01*
X14931071Y-14737405D01*
X14931071Y-14661214D01*
X14940595Y-14642167D01*
X14959643Y-14632643D01*
X14997738Y-14632643D01*
X15016786Y-14642167D01*
X15026309Y-14661214D01*
X15026309Y-14680262D01*
X14931071Y-14699309D01*
X15102500Y-14756452D02*
X15121548Y-14765976D01*
X15159643Y-14765976D01*
X15178690Y-14756452D01*
X15188214Y-14737405D01*
X15188214Y-14727881D01*
X15178690Y-14708833D01*
X15159643Y-14699309D01*
X15131071Y-14699309D01*
X15112024Y-14689786D01*
X15102500Y-14670738D01*
X15102500Y-14661214D01*
X15112024Y-14642167D01*
X15131071Y-14632643D01*
X15159643Y-14632643D01*
X15178690Y-14642167D01*
X15254881Y-14842167D02*
X15264405Y-14832643D01*
X15283452Y-14804071D01*
X15292976Y-14785024D01*
X15302500Y-14756452D01*
X15312024Y-14708833D01*
X15312024Y-14670738D01*
X15302500Y-14623119D01*
X15292976Y-14594548D01*
X15283452Y-14575500D01*
X15264405Y-14546928D01*
X15254881Y-14537405D01*
D15*
X10277856Y-14974856D02*
X10277856Y-14904144D01*
X10207144Y-14904144D01*
X10207144Y-14974856D01*
X10277856Y-14974856D01*
D11*
X10654881Y-15029976D02*
X10540595Y-15029976D01*
X10597738Y-15029976D02*
X10597738Y-14829976D01*
X10578690Y-14858548D01*
X10559643Y-14877595D01*
X10540595Y-14887119D01*
X10740595Y-15010928D02*
X10750119Y-15020452D01*
X10740595Y-15029976D01*
X10731071Y-15020452D01*
X10740595Y-15010928D01*
X10740595Y-15029976D01*
X10873929Y-14829976D02*
X10892976Y-14829976D01*
X10912024Y-14839500D01*
X10921548Y-14849024D01*
X10931071Y-14868071D01*
X10940595Y-14906167D01*
X10940595Y-14953786D01*
X10931071Y-14991881D01*
X10921548Y-15010928D01*
X10912024Y-15020452D01*
X10892976Y-15029976D01*
X10873929Y-15029976D01*
X10854881Y-15020452D01*
X10845357Y-15010928D01*
X10835833Y-14991881D01*
X10826310Y-14953786D01*
X10826310Y-14906167D01*
X10835833Y-14868071D01*
X10845357Y-14849024D01*
X10854881Y-14839500D01*
X10873929Y-14829976D01*
X11064405Y-14829976D02*
X11083452Y-14829976D01*
X11102500Y-14839500D01*
X11112024Y-14849024D01*
X11121548Y-14868071D01*
X11131071Y-14906167D01*
X11131071Y-14953786D01*
X11121548Y-14991881D01*
X11112024Y-15010928D01*
X11102500Y-15020452D01*
X11083452Y-15029976D01*
X11064405Y-15029976D01*
X11045357Y-15020452D01*
X11035833Y-15010928D01*
X11026310Y-14991881D01*
X11016786Y-14953786D01*
X11016786Y-14906167D01*
X11026310Y-14868071D01*
X11035833Y-14849024D01*
X11045357Y-14839500D01*
X11064405Y-14829976D01*
X11254881Y-14829976D02*
X11273928Y-14829976D01*
X11292976Y-14839500D01*
X11302500Y-14849024D01*
X11312024Y-14868071D01*
X11321548Y-14906167D01*
X11321548Y-14953786D01*
X11312024Y-14991881D01*
X11302500Y-15010928D01*
X11292976Y-15020452D01*
X11273928Y-15029976D01*
X11254881Y-15029976D01*
X11235833Y-15020452D01*
X11226309Y-15010928D01*
X11216786Y-14991881D01*
X11207262Y-14953786D01*
X11207262Y-14906167D01*
X11216786Y-14868071D01*
X11226309Y-14849024D01*
X11235833Y-14839500D01*
X11254881Y-14829976D01*
X11407262Y-15029976D02*
X11407262Y-14896643D01*
X11407262Y-14915690D02*
X11416786Y-14906167D01*
X11435833Y-14896643D01*
X11464405Y-14896643D01*
X11483452Y-14906167D01*
X11492976Y-14925214D01*
X11492976Y-15029976D01*
X11492976Y-14925214D02*
X11502500Y-14906167D01*
X11521548Y-14896643D01*
X11550119Y-14896643D01*
X11569167Y-14906167D01*
X11578690Y-14925214D01*
X11578690Y-15029976D01*
X11673928Y-15029976D02*
X11673928Y-14896643D01*
X11673928Y-14915690D02*
X11683452Y-14906167D01*
X11702500Y-14896643D01*
X11731071Y-14896643D01*
X11750119Y-14906167D01*
X11759643Y-14925214D01*
X11759643Y-15029976D01*
X11759643Y-14925214D02*
X11769167Y-14906167D01*
X11788214Y-14896643D01*
X11816786Y-14896643D01*
X11835833Y-14906167D01*
X11845357Y-14925214D01*
X11845357Y-15029976D01*
X12235833Y-14820452D02*
X12064405Y-15077595D01*
X12492976Y-14829976D02*
X12512024Y-14829976D01*
X12531071Y-14839500D01*
X12540595Y-14849024D01*
X12550119Y-14868071D01*
X12559643Y-14906167D01*
X12559643Y-14953786D01*
X12550119Y-14991881D01*
X12540595Y-15010928D01*
X12531071Y-15020452D01*
X12512024Y-15029976D01*
X12492976Y-15029976D01*
X12473928Y-15020452D01*
X12464405Y-15010928D01*
X12454881Y-14991881D01*
X12445357Y-14953786D01*
X12445357Y-14906167D01*
X12454881Y-14868071D01*
X12464405Y-14849024D01*
X12473928Y-14839500D01*
X12492976Y-14829976D01*
X12645357Y-15010928D02*
X12654881Y-15020452D01*
X12645357Y-15029976D01*
X12635833Y-15020452D01*
X12645357Y-15010928D01*
X12645357Y-15029976D01*
X12778690Y-14829976D02*
X12797738Y-14829976D01*
X12816786Y-14839500D01*
X12826309Y-14849024D01*
X12835833Y-14868071D01*
X12845357Y-14906167D01*
X12845357Y-14953786D01*
X12835833Y-14991881D01*
X12826309Y-15010928D01*
X12816786Y-15020452D01*
X12797738Y-15029976D01*
X12778690Y-15029976D01*
X12759643Y-15020452D01*
X12750119Y-15010928D01*
X12740595Y-14991881D01*
X12731071Y-14953786D01*
X12731071Y-14906167D01*
X12740595Y-14868071D01*
X12750119Y-14849024D01*
X12759643Y-14839500D01*
X12778690Y-14829976D01*
X12912024Y-14829976D02*
X13035833Y-14829976D01*
X12969167Y-14906167D01*
X12997738Y-14906167D01*
X13016786Y-14915690D01*
X13026309Y-14925214D01*
X13035833Y-14944262D01*
X13035833Y-14991881D01*
X13026309Y-15010928D01*
X13016786Y-15020452D01*
X12997738Y-15029976D01*
X12940595Y-15029976D01*
X12921548Y-15020452D01*
X12912024Y-15010928D01*
X13131071Y-15029976D02*
X13169167Y-15029976D01*
X13188214Y-15020452D01*
X13197738Y-15010928D01*
X13216786Y-14982357D01*
X13226309Y-14944262D01*
X13226309Y-14868071D01*
X13216786Y-14849024D01*
X13207262Y-14839500D01*
X13188214Y-14829976D01*
X13150119Y-14829976D01*
X13131071Y-14839500D01*
X13121548Y-14849024D01*
X13112024Y-14868071D01*
X13112024Y-14915690D01*
X13121548Y-14934738D01*
X13131071Y-14944262D01*
X13150119Y-14953786D01*
X13188214Y-14953786D01*
X13207262Y-14944262D01*
X13216786Y-14934738D01*
X13226309Y-14915690D01*
X13397738Y-14896643D02*
X13397738Y-15029976D01*
X13350119Y-14820452D02*
X13302500Y-14963309D01*
X13426309Y-14963309D01*
X13492976Y-14829976D02*
X13492976Y-14868071D01*
X13569167Y-14829976D02*
X13569167Y-14868071D01*
X13864405Y-15106167D02*
X13854881Y-15096643D01*
X13835833Y-15068071D01*
X13826309Y-15049024D01*
X13816786Y-15020452D01*
X13807262Y-14972833D01*
X13807262Y-14934738D01*
X13816786Y-14887119D01*
X13826309Y-14858548D01*
X13835833Y-14839500D01*
X13854881Y-14810928D01*
X13864405Y-14801405D01*
X13931071Y-14849024D02*
X13940595Y-14839500D01*
X13959643Y-14829976D01*
X14007262Y-14829976D01*
X14026309Y-14839500D01*
X14035833Y-14849024D01*
X14045357Y-14868071D01*
X14045357Y-14887119D01*
X14035833Y-14915690D01*
X13921548Y-15029976D01*
X14045357Y-15029976D01*
X14235833Y-15029976D02*
X14121548Y-15029976D01*
X14178690Y-15029976D02*
X14178690Y-14829976D01*
X14159643Y-14858548D01*
X14140595Y-14877595D01*
X14121548Y-14887119D01*
X14473928Y-15029976D02*
X14473928Y-14829976D01*
X14559643Y-15029976D02*
X14559643Y-14925214D01*
X14550119Y-14906167D01*
X14531071Y-14896643D01*
X14502500Y-14896643D01*
X14483452Y-14906167D01*
X14473928Y-14915690D01*
X14683452Y-15029976D02*
X14664405Y-15020452D01*
X14654881Y-15010928D01*
X14645357Y-14991881D01*
X14645357Y-14934738D01*
X14654881Y-14915690D01*
X14664405Y-14906167D01*
X14683452Y-14896643D01*
X14712024Y-14896643D01*
X14731071Y-14906167D01*
X14740595Y-14915690D01*
X14750119Y-14934738D01*
X14750119Y-14991881D01*
X14740595Y-15010928D01*
X14731071Y-15020452D01*
X14712024Y-15029976D01*
X14683452Y-15029976D01*
X14864405Y-15029976D02*
X14845357Y-15020452D01*
X14835833Y-15001405D01*
X14835833Y-14829976D01*
X15016786Y-15020452D02*
X14997738Y-15029976D01*
X14959643Y-15029976D01*
X14940595Y-15020452D01*
X14931071Y-15001405D01*
X14931071Y-14925214D01*
X14940595Y-14906167D01*
X14959643Y-14896643D01*
X14997738Y-14896643D01*
X15016786Y-14906167D01*
X15026309Y-14925214D01*
X15026309Y-14944262D01*
X14931071Y-14963309D01*
X15102500Y-15020452D02*
X15121548Y-15029976D01*
X15159643Y-15029976D01*
X15178690Y-15020452D01*
X15188214Y-15001405D01*
X15188214Y-14991881D01*
X15178690Y-14972833D01*
X15159643Y-14963309D01*
X15131071Y-14963309D01*
X15112024Y-14953786D01*
X15102500Y-14934738D01*
X15102500Y-14925214D01*
X15112024Y-14906167D01*
X15131071Y-14896643D01*
X15159643Y-14896643D01*
X15178690Y-14906167D01*
X15426309Y-14953786D02*
X15578690Y-14953786D01*
X15502500Y-15029976D02*
X15502500Y-14877595D01*
X15807262Y-14829976D02*
X15931071Y-14829976D01*
X15864405Y-14906167D01*
X15892976Y-14906167D01*
X15912024Y-14915690D01*
X15921548Y-14925214D01*
X15931071Y-14944262D01*
X15931071Y-14991881D01*
X15921548Y-15010928D01*
X15912024Y-15020452D01*
X15892976Y-15029976D01*
X15835833Y-15029976D01*
X15816786Y-15020452D01*
X15807262Y-15010928D01*
X16159643Y-15020452D02*
X16178690Y-15029976D01*
X16216786Y-15029976D01*
X16235833Y-15020452D01*
X16245357Y-15001405D01*
X16245357Y-14991881D01*
X16235833Y-14972833D01*
X16216786Y-14963309D01*
X16188214Y-14963309D01*
X16169167Y-14953786D01*
X16159643Y-14934738D01*
X16159643Y-14925214D01*
X16169167Y-14906167D01*
X16188214Y-14896643D01*
X16216786Y-14896643D01*
X16235833Y-14906167D01*
X16359643Y-15029976D02*
X16340595Y-15020452D01*
X16331071Y-15001405D01*
X16331071Y-14829976D01*
X16464405Y-15029976D02*
X16445357Y-15020452D01*
X16435833Y-15010928D01*
X16426309Y-14991881D01*
X16426309Y-14934738D01*
X16435833Y-14915690D01*
X16445357Y-14906167D01*
X16464405Y-14896643D01*
X16492976Y-14896643D01*
X16512024Y-14906167D01*
X16521548Y-14915690D01*
X16531071Y-14934738D01*
X16531071Y-14991881D01*
X16521548Y-15010928D01*
X16512024Y-15020452D01*
X16492976Y-15029976D01*
X16464405Y-15029976D01*
X16588214Y-14896643D02*
X16664405Y-14896643D01*
X16616786Y-14829976D02*
X16616786Y-15001405D01*
X16626309Y-15020452D01*
X16645357Y-15029976D01*
X16664405Y-15029976D01*
X16721548Y-15020452D02*
X16740595Y-15029976D01*
X16778690Y-15029976D01*
X16797738Y-15020452D01*
X16807262Y-15001405D01*
X16807262Y-14991881D01*
X16797738Y-14972833D01*
X16778690Y-14963309D01*
X16750119Y-14963309D01*
X16731071Y-14953786D01*
X16721548Y-14934738D01*
X16721548Y-14925214D01*
X16731071Y-14906167D01*
X16750119Y-14896643D01*
X16778690Y-14896643D01*
X16797738Y-14906167D01*
X16873929Y-15106167D02*
X16883452Y-15096643D01*
X16902500Y-15068071D01*
X16912024Y-15049024D01*
X16921548Y-15020452D01*
X16931071Y-14972833D01*
X16931071Y-14934738D01*
X16921548Y-14887119D01*
X16912024Y-14858548D01*
X16902500Y-14839500D01*
X16883452Y-14810928D01*
X16873929Y-14801405D01*
D16*
X10241500Y-15254500D02*
X10292500Y-15203500D01*
X10241500Y-15152500D01*
X10190500Y-15203500D01*
X10241500Y-15254500D01*
D11*
X10654881Y-15293976D02*
X10540595Y-15293976D01*
X10597738Y-15293976D02*
X10597738Y-15093976D01*
X10578690Y-15122548D01*
X10559643Y-15141595D01*
X10540595Y-15151119D01*
X10740595Y-15274928D02*
X10750119Y-15284452D01*
X10740595Y-15293976D01*
X10731071Y-15284452D01*
X10740595Y-15274928D01*
X10740595Y-15293976D01*
X10873929Y-15093976D02*
X10892976Y-15093976D01*
X10912024Y-15103500D01*
X10921548Y-15113024D01*
X10931071Y-15132071D01*
X10940595Y-15170167D01*
X10940595Y-15217786D01*
X10931071Y-15255881D01*
X10921548Y-15274928D01*
X10912024Y-15284452D01*
X10892976Y-15293976D01*
X10873929Y-15293976D01*
X10854881Y-15284452D01*
X10845357Y-15274928D01*
X10835833Y-15255881D01*
X10826310Y-15217786D01*
X10826310Y-15170167D01*
X10835833Y-15132071D01*
X10845357Y-15113024D01*
X10854881Y-15103500D01*
X10873929Y-15093976D01*
X11016786Y-15113024D02*
X11026310Y-15103500D01*
X11045357Y-15093976D01*
X11092976Y-15093976D01*
X11112024Y-15103500D01*
X11121548Y-15113024D01*
X11131071Y-15132071D01*
X11131071Y-15151119D01*
X11121548Y-15179690D01*
X11007262Y-15293976D01*
X11131071Y-15293976D01*
X11254881Y-15093976D02*
X11273928Y-15093976D01*
X11292976Y-15103500D01*
X11302500Y-15113024D01*
X11312024Y-15132071D01*
X11321548Y-15170167D01*
X11321548Y-15217786D01*
X11312024Y-15255881D01*
X11302500Y-15274928D01*
X11292976Y-15284452D01*
X11273928Y-15293976D01*
X11254881Y-15293976D01*
X11235833Y-15284452D01*
X11226309Y-15274928D01*
X11216786Y-15255881D01*
X11207262Y-15217786D01*
X11207262Y-15170167D01*
X11216786Y-15132071D01*
X11226309Y-15113024D01*
X11235833Y-15103500D01*
X11254881Y-15093976D01*
X11407262Y-15293976D02*
X11407262Y-15160643D01*
X11407262Y-15179690D02*
X11416786Y-15170167D01*
X11435833Y-15160643D01*
X11464405Y-15160643D01*
X11483452Y-15170167D01*
X11492976Y-15189214D01*
X11492976Y-15293976D01*
X11492976Y-15189214D02*
X11502500Y-15170167D01*
X11521548Y-15160643D01*
X11550119Y-15160643D01*
X11569167Y-15170167D01*
X11578690Y-15189214D01*
X11578690Y-15293976D01*
X11673928Y-15293976D02*
X11673928Y-15160643D01*
X11673928Y-15179690D02*
X11683452Y-15170167D01*
X11702500Y-15160643D01*
X11731071Y-15160643D01*
X11750119Y-15170167D01*
X11759643Y-15189214D01*
X11759643Y-15293976D01*
X11759643Y-15189214D02*
X11769167Y-15170167D01*
X11788214Y-15160643D01*
X11816786Y-15160643D01*
X11835833Y-15170167D01*
X11845357Y-15189214D01*
X11845357Y-15293976D01*
X12235833Y-15084452D02*
X12064405Y-15341595D01*
X12492976Y-15093976D02*
X12512024Y-15093976D01*
X12531071Y-15103500D01*
X12540595Y-15113024D01*
X12550119Y-15132071D01*
X12559643Y-15170167D01*
X12559643Y-15217786D01*
X12550119Y-15255881D01*
X12540595Y-15274928D01*
X12531071Y-15284452D01*
X12512024Y-15293976D01*
X12492976Y-15293976D01*
X12473928Y-15284452D01*
X12464405Y-15274928D01*
X12454881Y-15255881D01*
X12445357Y-15217786D01*
X12445357Y-15170167D01*
X12454881Y-15132071D01*
X12464405Y-15113024D01*
X12473928Y-15103500D01*
X12492976Y-15093976D01*
X12645357Y-15274928D02*
X12654881Y-15284452D01*
X12645357Y-15293976D01*
X12635833Y-15284452D01*
X12645357Y-15274928D01*
X12645357Y-15293976D01*
X12778690Y-15093976D02*
X12797738Y-15093976D01*
X12816786Y-15103500D01*
X12826309Y-15113024D01*
X12835833Y-15132071D01*
X12845357Y-15170167D01*
X12845357Y-15217786D01*
X12835833Y-15255881D01*
X12826309Y-15274928D01*
X12816786Y-15284452D01*
X12797738Y-15293976D01*
X12778690Y-15293976D01*
X12759643Y-15284452D01*
X12750119Y-15274928D01*
X12740595Y-15255881D01*
X12731071Y-15217786D01*
X12731071Y-15170167D01*
X12740595Y-15132071D01*
X12750119Y-15113024D01*
X12759643Y-15103500D01*
X12778690Y-15093976D01*
X13016786Y-15160643D02*
X13016786Y-15293976D01*
X12969167Y-15084452D02*
X12921548Y-15227309D01*
X13045357Y-15227309D01*
X13159643Y-15093976D02*
X13178690Y-15093976D01*
X13197738Y-15103500D01*
X13207262Y-15113024D01*
X13216786Y-15132071D01*
X13226309Y-15170167D01*
X13226309Y-15217786D01*
X13216786Y-15255881D01*
X13207262Y-15274928D01*
X13197738Y-15284452D01*
X13178690Y-15293976D01*
X13159643Y-15293976D01*
X13140595Y-15284452D01*
X13131071Y-15274928D01*
X13121548Y-15255881D01*
X13112024Y-15217786D01*
X13112024Y-15170167D01*
X13121548Y-15132071D01*
X13131071Y-15113024D01*
X13140595Y-15103500D01*
X13159643Y-15093976D01*
X13302500Y-15113024D02*
X13312024Y-15103500D01*
X13331071Y-15093976D01*
X13378690Y-15093976D01*
X13397738Y-15103500D01*
X13407262Y-15113024D01*
X13416786Y-15132071D01*
X13416786Y-15151119D01*
X13407262Y-15179690D01*
X13292976Y-15293976D01*
X13416786Y-15293976D01*
X13492976Y-15093976D02*
X13492976Y-15132071D01*
X13569167Y-15093976D02*
X13569167Y-15132071D01*
X13864405Y-15370167D02*
X13854881Y-15360643D01*
X13835833Y-15332071D01*
X13826309Y-15313024D01*
X13816786Y-15284452D01*
X13807262Y-15236833D01*
X13807262Y-15198738D01*
X13816786Y-15151119D01*
X13826309Y-15122548D01*
X13835833Y-15103500D01*
X13854881Y-15074928D01*
X13864405Y-15065405D01*
X14026309Y-15160643D02*
X14026309Y-15293976D01*
X13978690Y-15084452D02*
X13931071Y-15227309D01*
X14054881Y-15227309D01*
X14112024Y-15093976D02*
X14235833Y-15093976D01*
X14169167Y-15170167D01*
X14197738Y-15170167D01*
X14216786Y-15179690D01*
X14226309Y-15189214D01*
X14235833Y-15208262D01*
X14235833Y-15255881D01*
X14226309Y-15274928D01*
X14216786Y-15284452D01*
X14197738Y-15293976D01*
X14140595Y-15293976D01*
X14121548Y-15284452D01*
X14112024Y-15274928D01*
X14473928Y-15293976D02*
X14473928Y-15093976D01*
X14559643Y-15293976D02*
X14559643Y-15189214D01*
X14550119Y-15170167D01*
X14531071Y-15160643D01*
X14502500Y-15160643D01*
X14483452Y-15170167D01*
X14473928Y-15179690D01*
X14683452Y-15293976D02*
X14664405Y-15284452D01*
X14654881Y-15274928D01*
X14645357Y-15255881D01*
X14645357Y-15198738D01*
X14654881Y-15179690D01*
X14664405Y-15170167D01*
X14683452Y-15160643D01*
X14712024Y-15160643D01*
X14731071Y-15170167D01*
X14740595Y-15179690D01*
X14750119Y-15198738D01*
X14750119Y-15255881D01*
X14740595Y-15274928D01*
X14731071Y-15284452D01*
X14712024Y-15293976D01*
X14683452Y-15293976D01*
X14864405Y-15293976D02*
X14845357Y-15284452D01*
X14835833Y-15265405D01*
X14835833Y-15093976D01*
X15016786Y-15284452D02*
X14997738Y-15293976D01*
X14959643Y-15293976D01*
X14940595Y-15284452D01*
X14931071Y-15265405D01*
X14931071Y-15189214D01*
X14940595Y-15170167D01*
X14959643Y-15160643D01*
X14997738Y-15160643D01*
X15016786Y-15170167D01*
X15026309Y-15189214D01*
X15026309Y-15208262D01*
X14931071Y-15227309D01*
X15102500Y-15284452D02*
X15121548Y-15293976D01*
X15159643Y-15293976D01*
X15178690Y-15284452D01*
X15188214Y-15265405D01*
X15188214Y-15255881D01*
X15178690Y-15236833D01*
X15159643Y-15227309D01*
X15131071Y-15227309D01*
X15112024Y-15217786D01*
X15102500Y-15198738D01*
X15102500Y-15189214D01*
X15112024Y-15170167D01*
X15131071Y-15160643D01*
X15159643Y-15160643D01*
X15178690Y-15170167D01*
X15254881Y-15370167D02*
X15264405Y-15360643D01*
X15283452Y-15332071D01*
X15292976Y-15313024D01*
X15302500Y-15284452D01*
X15312024Y-15236833D01*
X15312024Y-15198738D01*
X15302500Y-15151119D01*
X15292976Y-15122548D01*
X15283452Y-15103500D01*
X15264405Y-15074928D01*
X15254881Y-15065405D01*
D17*
X10182500Y-15412500D02*
X10292500Y-15522500D01*
X10292500Y-15412500D02*
X10182500Y-15522500D01*
X10292500Y-15467500D02*
G75*
G03*
X10292500Y-15467500I-55000J0D01*
G01*
D11*
X10654881Y-15557976D02*
X10540595Y-15557976D01*
X10597738Y-15557976D02*
X10597738Y-15357976D01*
X10578690Y-15386548D01*
X10559643Y-15405595D01*
X10540595Y-15415119D01*
X10740595Y-15538928D02*
X10750119Y-15548452D01*
X10740595Y-15557976D01*
X10731071Y-15548452D01*
X10740595Y-15538928D01*
X10740595Y-15557976D01*
X10940595Y-15557976D02*
X10826310Y-15557976D01*
X10883452Y-15557976D02*
X10883452Y-15357976D01*
X10864405Y-15386548D01*
X10845357Y-15405595D01*
X10826310Y-15415119D01*
X11064405Y-15357976D02*
X11083452Y-15357976D01*
X11102500Y-15367500D01*
X11112024Y-15377024D01*
X11121548Y-15396071D01*
X11131071Y-15434167D01*
X11131071Y-15481786D01*
X11121548Y-15519881D01*
X11112024Y-15538928D01*
X11102500Y-15548452D01*
X11083452Y-15557976D01*
X11064405Y-15557976D01*
X11045357Y-15548452D01*
X11035833Y-15538928D01*
X11026310Y-15519881D01*
X11016786Y-15481786D01*
X11016786Y-15434167D01*
X11026310Y-15396071D01*
X11035833Y-15377024D01*
X11045357Y-15367500D01*
X11064405Y-15357976D01*
X11254881Y-15357976D02*
X11273928Y-15357976D01*
X11292976Y-15367500D01*
X11302500Y-15377024D01*
X11312024Y-15396071D01*
X11321548Y-15434167D01*
X11321548Y-15481786D01*
X11312024Y-15519881D01*
X11302500Y-15538928D01*
X11292976Y-15548452D01*
X11273928Y-15557976D01*
X11254881Y-15557976D01*
X11235833Y-15548452D01*
X11226309Y-15538928D01*
X11216786Y-15519881D01*
X11207262Y-15481786D01*
X11207262Y-15434167D01*
X11216786Y-15396071D01*
X11226309Y-15377024D01*
X11235833Y-15367500D01*
X11254881Y-15357976D01*
X11407262Y-15557976D02*
X11407262Y-15424643D01*
X11407262Y-15443690D02*
X11416786Y-15434167D01*
X11435833Y-15424643D01*
X11464405Y-15424643D01*
X11483452Y-15434167D01*
X11492976Y-15453214D01*
X11492976Y-15557976D01*
X11492976Y-15453214D02*
X11502500Y-15434167D01*
X11521548Y-15424643D01*
X11550119Y-15424643D01*
X11569167Y-15434167D01*
X11578690Y-15453214D01*
X11578690Y-15557976D01*
X11673928Y-15557976D02*
X11673928Y-15424643D01*
X11673928Y-15443690D02*
X11683452Y-15434167D01*
X11702500Y-15424643D01*
X11731071Y-15424643D01*
X11750119Y-15434167D01*
X11759643Y-15453214D01*
X11759643Y-15557976D01*
X11759643Y-15453214D02*
X11769167Y-15434167D01*
X11788214Y-15424643D01*
X11816786Y-15424643D01*
X11835833Y-15434167D01*
X11845357Y-15453214D01*
X11845357Y-15557976D01*
X12235833Y-15348452D02*
X12064405Y-15605595D01*
X12492976Y-15357976D02*
X12512024Y-15357976D01*
X12531071Y-15367500D01*
X12540595Y-15377024D01*
X12550119Y-15396071D01*
X12559643Y-15434167D01*
X12559643Y-15481786D01*
X12550119Y-15519881D01*
X12540595Y-15538928D01*
X12531071Y-15548452D01*
X12512024Y-15557976D01*
X12492976Y-15557976D01*
X12473928Y-15548452D01*
X12464405Y-15538928D01*
X12454881Y-15519881D01*
X12445357Y-15481786D01*
X12445357Y-15434167D01*
X12454881Y-15396071D01*
X12464405Y-15377024D01*
X12473928Y-15367500D01*
X12492976Y-15357976D01*
X12645357Y-15538928D02*
X12654881Y-15548452D01*
X12645357Y-15557976D01*
X12635833Y-15548452D01*
X12645357Y-15538928D01*
X12645357Y-15557976D01*
X12778690Y-15357976D02*
X12797738Y-15357976D01*
X12816786Y-15367500D01*
X12826309Y-15377024D01*
X12835833Y-15396071D01*
X12845357Y-15434167D01*
X12845357Y-15481786D01*
X12835833Y-15519881D01*
X12826309Y-15538928D01*
X12816786Y-15548452D01*
X12797738Y-15557976D01*
X12778690Y-15557976D01*
X12759643Y-15548452D01*
X12750119Y-15538928D01*
X12740595Y-15519881D01*
X12731071Y-15481786D01*
X12731071Y-15434167D01*
X12740595Y-15396071D01*
X12750119Y-15377024D01*
X12759643Y-15367500D01*
X12778690Y-15357976D01*
X13016786Y-15424643D02*
X13016786Y-15557976D01*
X12969167Y-15348452D02*
X12921548Y-15491309D01*
X13045357Y-15491309D01*
X13102500Y-15357976D02*
X13226309Y-15357976D01*
X13159643Y-15434167D01*
X13188214Y-15434167D01*
X13207262Y-15443690D01*
X13216786Y-15453214D01*
X13226309Y-15472262D01*
X13226309Y-15519881D01*
X13216786Y-15538928D01*
X13207262Y-15548452D01*
X13188214Y-15557976D01*
X13131071Y-15557976D01*
X13112024Y-15548452D01*
X13102500Y-15538928D01*
X13292976Y-15357976D02*
X13416786Y-15357976D01*
X13350119Y-15434167D01*
X13378690Y-15434167D01*
X13397738Y-15443690D01*
X13407262Y-15453214D01*
X13416786Y-15472262D01*
X13416786Y-15519881D01*
X13407262Y-15538928D01*
X13397738Y-15548452D01*
X13378690Y-15557976D01*
X13321548Y-15557976D01*
X13302500Y-15548452D01*
X13292976Y-15538928D01*
X13492976Y-15357976D02*
X13492976Y-15396071D01*
X13569167Y-15357976D02*
X13569167Y-15396071D01*
X13864405Y-15634167D02*
X13854881Y-15624643D01*
X13835833Y-15596071D01*
X13826309Y-15577024D01*
X13816786Y-15548452D01*
X13807262Y-15500833D01*
X13807262Y-15462738D01*
X13816786Y-15415119D01*
X13826309Y-15386548D01*
X13835833Y-15367500D01*
X13854881Y-15338928D01*
X13864405Y-15329405D01*
X14026309Y-15424643D02*
X14026309Y-15557976D01*
X13978690Y-15348452D02*
X13931071Y-15491309D01*
X14054881Y-15491309D01*
X14283452Y-15557976D02*
X14283452Y-15357976D01*
X14369167Y-15557976D02*
X14369167Y-15453214D01*
X14359643Y-15434167D01*
X14340595Y-15424643D01*
X14312024Y-15424643D01*
X14292976Y-15434167D01*
X14283452Y-15443690D01*
X14492976Y-15557976D02*
X14473928Y-15548452D01*
X14464405Y-15538928D01*
X14454881Y-15519881D01*
X14454881Y-15462738D01*
X14464405Y-15443690D01*
X14473928Y-15434167D01*
X14492976Y-15424643D01*
X14521548Y-15424643D01*
X14540595Y-15434167D01*
X14550119Y-15443690D01*
X14559643Y-15462738D01*
X14559643Y-15519881D01*
X14550119Y-15538928D01*
X14540595Y-15548452D01*
X14521548Y-15557976D01*
X14492976Y-15557976D01*
X14673928Y-15557976D02*
X14654881Y-15548452D01*
X14645357Y-15529405D01*
X14645357Y-15357976D01*
X14826309Y-15548452D02*
X14807262Y-15557976D01*
X14769167Y-15557976D01*
X14750119Y-15548452D01*
X14740595Y-15529405D01*
X14740595Y-15453214D01*
X14750119Y-15434167D01*
X14769167Y-15424643D01*
X14807262Y-15424643D01*
X14826309Y-15434167D01*
X14835833Y-15453214D01*
X14835833Y-15472262D01*
X14740595Y-15491309D01*
X14912024Y-15548452D02*
X14931071Y-15557976D01*
X14969167Y-15557976D01*
X14988214Y-15548452D01*
X14997738Y-15529405D01*
X14997738Y-15519881D01*
X14988214Y-15500833D01*
X14969167Y-15491309D01*
X14940595Y-15491309D01*
X14921548Y-15481786D01*
X14912024Y-15462738D01*
X14912024Y-15453214D01*
X14921548Y-15434167D01*
X14940595Y-15424643D01*
X14969167Y-15424643D01*
X14988214Y-15434167D01*
X15064405Y-15634167D02*
X15073928Y-15624643D01*
X15092976Y-15596071D01*
X15102500Y-15577024D01*
X15112024Y-15548452D01*
X15121548Y-15500833D01*
X15121548Y-15462738D01*
X15112024Y-15415119D01*
X15102500Y-15386548D01*
X15092976Y-15367500D01*
X15073928Y-15338928D01*
X15064405Y-15329405D01*
D18*
X10162500Y-15666500D02*
X10292500Y-15796500D01*
X10292500Y-15666500D02*
X10162500Y-15796500D01*
X10227500Y-15666500D02*
X10227500Y-15796500D01*
X10162500Y-15731500D02*
X10292500Y-15731500D01*
D11*
X10654881Y-15821976D02*
X10540595Y-15821976D01*
X10597738Y-15821976D02*
X10597738Y-15621976D01*
X10578690Y-15650548D01*
X10559643Y-15669595D01*
X10540595Y-15679119D01*
X10740595Y-15802928D02*
X10750119Y-15812452D01*
X10740595Y-15821976D01*
X10731071Y-15812452D01*
X10740595Y-15802928D01*
X10740595Y-15821976D01*
X10816786Y-15621976D02*
X10940595Y-15621976D01*
X10873929Y-15698167D01*
X10902500Y-15698167D01*
X10921548Y-15707690D01*
X10931071Y-15717214D01*
X10940595Y-15736262D01*
X10940595Y-15783881D01*
X10931071Y-15802928D01*
X10921548Y-15812452D01*
X10902500Y-15821976D01*
X10845357Y-15821976D01*
X10826310Y-15812452D01*
X10816786Y-15802928D01*
X11064405Y-15621976D02*
X11083452Y-15621976D01*
X11102500Y-15631500D01*
X11112024Y-15641024D01*
X11121548Y-15660071D01*
X11131071Y-15698167D01*
X11131071Y-15745786D01*
X11121548Y-15783881D01*
X11112024Y-15802928D01*
X11102500Y-15812452D01*
X11083452Y-15821976D01*
X11064405Y-15821976D01*
X11045357Y-15812452D01*
X11035833Y-15802928D01*
X11026310Y-15783881D01*
X11016786Y-15745786D01*
X11016786Y-15698167D01*
X11026310Y-15660071D01*
X11035833Y-15641024D01*
X11045357Y-15631500D01*
X11064405Y-15621976D01*
X11254881Y-15621976D02*
X11273928Y-15621976D01*
X11292976Y-15631500D01*
X11302500Y-15641024D01*
X11312024Y-15660071D01*
X11321548Y-15698167D01*
X11321548Y-15745786D01*
X11312024Y-15783881D01*
X11302500Y-15802928D01*
X11292976Y-15812452D01*
X11273928Y-15821976D01*
X11254881Y-15821976D01*
X11235833Y-15812452D01*
X11226309Y-15802928D01*
X11216786Y-15783881D01*
X11207262Y-15745786D01*
X11207262Y-15698167D01*
X11216786Y-15660071D01*
X11226309Y-15641024D01*
X11235833Y-15631500D01*
X11254881Y-15621976D01*
X11407262Y-15821976D02*
X11407262Y-15688643D01*
X11407262Y-15707690D02*
X11416786Y-15698167D01*
X11435833Y-15688643D01*
X11464405Y-15688643D01*
X11483452Y-15698167D01*
X11492976Y-15717214D01*
X11492976Y-15821976D01*
X11492976Y-15717214D02*
X11502500Y-15698167D01*
X11521548Y-15688643D01*
X11550119Y-15688643D01*
X11569167Y-15698167D01*
X11578690Y-15717214D01*
X11578690Y-15821976D01*
X11673928Y-15821976D02*
X11673928Y-15688643D01*
X11673928Y-15707690D02*
X11683452Y-15698167D01*
X11702500Y-15688643D01*
X11731071Y-15688643D01*
X11750119Y-15698167D01*
X11759643Y-15717214D01*
X11759643Y-15821976D01*
X11759643Y-15717214D02*
X11769167Y-15698167D01*
X11788214Y-15688643D01*
X11816786Y-15688643D01*
X11835833Y-15698167D01*
X11845357Y-15717214D01*
X11845357Y-15821976D01*
X12235833Y-15612452D02*
X12064405Y-15869595D01*
X12492976Y-15621976D02*
X12512024Y-15621976D01*
X12531071Y-15631500D01*
X12540595Y-15641024D01*
X12550119Y-15660071D01*
X12559643Y-15698167D01*
X12559643Y-15745786D01*
X12550119Y-15783881D01*
X12540595Y-15802928D01*
X12531071Y-15812452D01*
X12512024Y-15821976D01*
X12492976Y-15821976D01*
X12473928Y-15812452D01*
X12464405Y-15802928D01*
X12454881Y-15783881D01*
X12445357Y-15745786D01*
X12445357Y-15698167D01*
X12454881Y-15660071D01*
X12464405Y-15641024D01*
X12473928Y-15631500D01*
X12492976Y-15621976D01*
X12645357Y-15802928D02*
X12654881Y-15812452D01*
X12645357Y-15821976D01*
X12635833Y-15812452D01*
X12645357Y-15802928D01*
X12645357Y-15821976D01*
X12778690Y-15621976D02*
X12797738Y-15621976D01*
X12816786Y-15631500D01*
X12826309Y-15641024D01*
X12835833Y-15660071D01*
X12845357Y-15698167D01*
X12845357Y-15745786D01*
X12835833Y-15783881D01*
X12826309Y-15802928D01*
X12816786Y-15812452D01*
X12797738Y-15821976D01*
X12778690Y-15821976D01*
X12759643Y-15812452D01*
X12750119Y-15802928D01*
X12740595Y-15783881D01*
X12731071Y-15745786D01*
X12731071Y-15698167D01*
X12740595Y-15660071D01*
X12750119Y-15641024D01*
X12759643Y-15631500D01*
X12778690Y-15621976D01*
X13026309Y-15621976D02*
X12931071Y-15621976D01*
X12921548Y-15717214D01*
X12931071Y-15707690D01*
X12950119Y-15698167D01*
X12997738Y-15698167D01*
X13016786Y-15707690D01*
X13026309Y-15717214D01*
X13035833Y-15736262D01*
X13035833Y-15783881D01*
X13026309Y-15802928D01*
X13016786Y-15812452D01*
X12997738Y-15821976D01*
X12950119Y-15821976D01*
X12931071Y-15812452D01*
X12921548Y-15802928D01*
X13226309Y-15821976D02*
X13112024Y-15821976D01*
X13169167Y-15821976D02*
X13169167Y-15621976D01*
X13150119Y-15650548D01*
X13131071Y-15669595D01*
X13112024Y-15679119D01*
X13302500Y-15641024D02*
X13312024Y-15631500D01*
X13331071Y-15621976D01*
X13378690Y-15621976D01*
X13397738Y-15631500D01*
X13407262Y-15641024D01*
X13416786Y-15660071D01*
X13416786Y-15679119D01*
X13407262Y-15707690D01*
X13292976Y-15821976D01*
X13416786Y-15821976D01*
X13492976Y-15621976D02*
X13492976Y-15660071D01*
X13569167Y-15621976D02*
X13569167Y-15660071D01*
X13864405Y-15898167D02*
X13854881Y-15888643D01*
X13835833Y-15860071D01*
X13826309Y-15841024D01*
X13816786Y-15812452D01*
X13807262Y-15764833D01*
X13807262Y-15726738D01*
X13816786Y-15679119D01*
X13826309Y-15650548D01*
X13835833Y-15631500D01*
X13854881Y-15602928D01*
X13864405Y-15593405D01*
X13921548Y-15621976D02*
X14045357Y-15621976D01*
X13978690Y-15698167D01*
X14007262Y-15698167D01*
X14026309Y-15707690D01*
X14035833Y-15717214D01*
X14045357Y-15736262D01*
X14045357Y-15783881D01*
X14035833Y-15802928D01*
X14026309Y-15812452D01*
X14007262Y-15821976D01*
X13950119Y-15821976D01*
X13931071Y-15812452D01*
X13921548Y-15802928D01*
X14283452Y-15821976D02*
X14283452Y-15621976D01*
X14369167Y-15821976D02*
X14369167Y-15717214D01*
X14359643Y-15698167D01*
X14340595Y-15688643D01*
X14312024Y-15688643D01*
X14292976Y-15698167D01*
X14283452Y-15707690D01*
X14492976Y-15821976D02*
X14473928Y-15812452D01*
X14464405Y-15802928D01*
X14454881Y-15783881D01*
X14454881Y-15726738D01*
X14464405Y-15707690D01*
X14473928Y-15698167D01*
X14492976Y-15688643D01*
X14521548Y-15688643D01*
X14540595Y-15698167D01*
X14550119Y-15707690D01*
X14559643Y-15726738D01*
X14559643Y-15783881D01*
X14550119Y-15802928D01*
X14540595Y-15812452D01*
X14521548Y-15821976D01*
X14492976Y-15821976D01*
X14673928Y-15821976D02*
X14654881Y-15812452D01*
X14645357Y-15793405D01*
X14645357Y-15621976D01*
X14826309Y-15812452D02*
X14807262Y-15821976D01*
X14769167Y-15821976D01*
X14750119Y-15812452D01*
X14740595Y-15793405D01*
X14740595Y-15717214D01*
X14750119Y-15698167D01*
X14769167Y-15688643D01*
X14807262Y-15688643D01*
X14826309Y-15698167D01*
X14835833Y-15717214D01*
X14835833Y-15736262D01*
X14740595Y-15755309D01*
X14912024Y-15812452D02*
X14931071Y-15821976D01*
X14969167Y-15821976D01*
X14988214Y-15812452D01*
X14997738Y-15793405D01*
X14997738Y-15783881D01*
X14988214Y-15764833D01*
X14969167Y-15755309D01*
X14940595Y-15755309D01*
X14921548Y-15745786D01*
X14912024Y-15726738D01*
X14912024Y-15717214D01*
X14921548Y-15698167D01*
X14940595Y-15688643D01*
X14969167Y-15688643D01*
X14988214Y-15698167D01*
X15064405Y-15898167D02*
X15073928Y-15888643D01*
X15092976Y-15860071D01*
X15102500Y-15841024D01*
X15112024Y-15812452D01*
X15121548Y-15764833D01*
X15121548Y-15726738D01*
X15112024Y-15679119D01*
X15102500Y-15650548D01*
X15092976Y-15631500D01*
X15073928Y-15602928D01*
X15064405Y-15593405D01*
M02*
